<svg width="298" height="96" viewBox="0 0 298 96" fill="none" xmlns="http://www.w3.org/2000/svg">
<rect x="0.65625" y="0.0371094" width="296.911" height="95.6558" rx="10" fill="black"/>
<path d="M28.9219 31.945L33.3098 45.3317L42.7061 55.8189L56.4807 31.9498L84.0394 31.945C78.5364 22.4323 68.2576 16.0371 56.4807 16.0371C44.7037 16.0371 34.4249 22.4323 28.9219 31.945Z" fill="url(#paint0_linear_6410_46480)"/>
<path d="M56.4745 79.6932L65.8709 69.2011L70.2539 55.8193H42.7L28.9206 31.9453C23.4369 41.4677 23.0345 53.5744 28.9254 63.7756C34.8115 73.9768 45.4927 79.6835 56.4745 79.6932Z" fill="url(#paint1_linear_6410_46480)"/>
<path d="M84.0353 31.9502H56.4766L70.256 55.8193L56.4766 79.6932C67.4632 79.6835 78.1444 73.9769 84.0305 63.7757C89.9214 53.5744 89.519 41.4726 84.0353 31.9502Z" fill="url(#paint2_linear_6410_46480)"/>
<path d="M56.4782 63.7757C65.2639 63.7757 72.3861 56.6513 72.3861 47.8629C72.3861 39.0746 65.2639 31.9502 56.4782 31.9502C47.6925 31.9502 40.5703 39.0746 40.5703 47.8629C40.5703 56.6513 47.6925 63.7757 56.4782 63.7757Z" fill="#F1F3F4"/>
<path d="M56.4808 60.7935C63.6196 60.7935 69.4068 55.0041 69.4068 47.8626C69.4068 40.721 63.6196 34.9316 56.4808 34.9316C49.3419 34.9316 43.5547 40.721 43.5547 47.8626C43.5547 55.0041 49.3419 60.7935 56.4808 60.7935Z" fill="#1A73E8"/>
<path d="M122.989 71.8654C119.969 71.8654 117.414 70.8589 115.401 68.7686C113.389 66.7557 112.305 64.2008 112.305 61.1041C112.305 58.0847 113.311 55.5299 115.401 53.4395C117.414 51.4266 119.969 50.3428 122.989 50.3428C126.085 50.3428 128.563 51.4266 130.498 53.6718L128.64 55.4525C127.247 53.7492 125.311 52.8202 122.911 52.8202C120.666 52.8202 118.808 53.5944 117.26 55.0654C115.711 56.5363 114.937 58.5492 114.937 61.0266C114.937 63.5041 115.711 65.4395 117.26 66.9879C118.808 68.4589 120.666 69.2331 122.911 69.2331C125.389 69.2331 127.479 68.2266 129.182 66.2912L131.04 68.1492C130.111 69.3105 128.95 70.1621 127.479 70.8589C126.24 71.4783 124.692 71.8654 122.989 71.8654Z" fill="white"/>
<path d="M136.148 50.8848V57.388L136.07 59.3235H136.148C136.535 58.6267 137.154 58.0848 137.929 57.6203C138.78 57.1557 139.632 56.9235 140.561 56.9235C142.264 56.9235 143.658 57.4654 144.509 58.5493C145.438 59.6332 145.903 61.0267 145.903 62.8848V71.4783H143.27V63.1944C143.27 60.5622 142.109 59.3235 139.787 59.3235C138.703 59.3235 137.774 59.788 137.154 60.6396C136.458 61.4912 136.148 62.4977 136.148 63.659V71.4009H133.516V50.8848H136.148Z" fill="white"/>
<path d="M151.632 71.401H149V57.3107H151.555V59.6332H151.632C151.865 58.859 152.484 58.2397 153.258 57.7752C154.11 57.3107 154.884 57.001 155.658 57.001C156.432 57.001 157.129 57.0784 157.671 57.3107L156.665 59.7881C156.355 59.6332 155.89 59.5558 155.271 59.5558C154.342 59.5558 153.49 59.9429 152.716 60.7171C152.019 61.4913 151.632 62.4977 151.632 63.659V71.401Z" fill="white"/>
<path d="M159.763 59.0134C161.156 57.6199 162.86 56.8457 164.95 56.8457C167.04 56.8457 168.744 57.5425 170.137 59.0134C171.531 60.407 172.15 62.1876 172.15 64.3554C172.15 66.5231 171.453 68.3038 170.137 69.6973C168.744 71.0909 167.04 71.8651 164.95 71.8651C162.86 71.8651 161.156 71.1683 159.763 69.6973C158.369 68.3038 157.75 66.5231 157.75 64.3554C157.75 62.1876 158.447 60.407 159.763 59.0134ZM161.776 68.0715C162.705 69.0005 163.789 69.4651 165.027 69.4651C166.266 69.4651 167.35 69.0005 168.279 68.0715C169.208 67.1425 169.673 65.9038 169.673 64.3554C169.673 62.807 169.208 61.5683 168.279 60.6392C167.35 59.7102 166.266 59.2457 165.027 59.2457C163.789 59.2457 162.705 59.7102 161.776 60.6392C160.847 61.5683 160.382 62.807 160.382 64.3554C160.382 65.9038 160.847 67.1425 161.776 68.0715Z" fill="white"/>
<path d="M174.32 71.4012V57.3109H176.875V59.3238H176.953C177.34 58.6271 177.959 58.0851 178.811 57.6206C179.662 57.1561 180.436 56.9238 181.288 56.9238C183.456 56.9238 184.927 57.8529 185.701 59.6335C186.862 57.8529 188.488 56.9238 190.578 56.9238C192.204 56.9238 193.52 57.4658 194.295 58.5496C195.146 59.6335 195.533 61.0271 195.533 62.8851V71.4787H192.901V63.1948C192.901 61.8012 192.669 60.7948 192.127 60.1754C191.585 59.5561 190.811 59.3238 189.804 59.3238C188.798 59.3238 187.946 59.7883 187.249 60.64C186.553 61.4916 186.243 62.498 186.243 63.6593V71.4012H183.611V63.1948C183.611 61.8012 183.378 60.7948 182.836 60.1754C182.295 59.5561 181.52 59.3238 180.514 59.3238C179.507 59.3238 178.656 59.7883 177.959 60.64C177.262 61.4916 176.953 62.498 176.953 63.6593V71.4012H174.32Z" fill="white"/>
<path d="M205.052 71.8655C202.961 71.8655 201.181 71.1687 199.864 69.7752C198.548 68.3816 197.852 66.601 197.852 64.4332C197.852 62.4203 198.471 60.6397 199.787 59.1687C201.103 57.6978 202.729 57.001 204.742 57.001C206.832 57.001 208.458 57.6977 209.774 59.0139C211.09 60.33 211.632 62.1881 211.632 64.4332V64.8977H200.561C200.639 66.2913 201.103 67.4526 201.955 68.2268C202.806 69.0784 203.813 69.4655 204.974 69.4655C206.832 69.4655 208.148 68.6913 208.845 67.0655L211.168 68.0719C210.703 69.1558 209.929 70.0849 208.923 70.7816C207.916 71.4784 206.6 71.8655 205.052 71.8655ZM208.845 62.6526C208.768 61.8784 208.458 61.1042 207.761 60.33C207.064 59.6332 206.058 59.2461 204.742 59.2461C203.735 59.2461 202.961 59.5558 202.187 60.1752C201.413 60.7945 200.948 61.5687 200.716 62.6526H208.845Z" fill="white"/>
<path d="M243.611 50.8848L238.114 71.4009H235.404L230.992 57.8525H230.914L226.501 71.4009H223.792L218.062 50.8848H220.85L225.185 66.988H225.263L229.675 53.5944H232.153L236.566 66.988H236.643L240.746 50.8848H243.611Z" fill="white"/>
<path d="M250.419 71.8655C248.328 71.8655 246.548 71.1687 245.232 69.7752C243.916 68.3816 243.219 66.601 243.219 64.4332C243.219 62.4203 243.838 60.6397 245.154 59.1687C246.47 57.6978 248.096 57.001 250.109 57.001C252.199 57.001 253.825 57.6977 255.141 59.0139C256.457 60.33 256.999 62.1881 256.999 64.4332V64.8977H245.928C246.006 66.2913 246.47 67.4526 247.322 68.2268C248.174 69.0784 249.18 69.4655 250.341 69.4655C252.199 69.4655 253.516 68.6913 254.212 67.0655L256.535 68.0719C256.07 69.1558 255.296 70.0849 254.29 70.7816C253.206 71.4784 251.967 71.8655 250.419 71.8655ZM254.212 62.6526C254.135 61.8784 253.825 61.1042 253.128 60.33C252.432 59.6332 251.425 59.2461 250.109 59.2461C249.103 59.2461 248.328 59.5558 247.554 60.1752C246.78 60.7945 246.316 61.5687 246.083 62.6526H254.212Z" fill="white"/>
<path d="M266.831 71.8654C265.747 71.8654 264.818 71.6332 263.966 71.1686C263.115 70.7041 262.495 70.1622 262.031 69.4654H261.953V71.4009H259.398V50.8848H262.031V57.388L261.953 59.3235H262.031C262.418 58.6267 263.115 58.0848 263.966 57.6203C264.818 57.1557 265.747 56.9235 266.831 56.9235C268.611 56.9235 270.237 57.6202 271.553 59.0912C272.869 60.5622 273.566 62.2654 273.566 64.4332C273.566 66.5235 272.869 68.3041 271.553 69.7751C270.237 71.0912 268.689 71.8654 266.831 71.8654ZM266.444 69.4654C267.682 69.4654 268.689 69.0009 269.618 68.0719C270.547 67.1428 270.934 65.9041 270.934 64.3557C270.934 62.8073 270.469 61.5686 269.618 60.6396C268.766 59.7106 267.682 59.2461 266.444 59.2461C265.205 59.2461 264.121 59.7106 263.269 60.6396C262.418 61.5686 261.953 62.8073 261.953 64.3557C261.953 65.9041 262.418 67.1428 263.269 68.0719C264.121 69.0009 265.205 69.4654 266.444 69.4654Z" fill="white"/>
<path d="M113.852 39.5044L119.735 24.0205H121.981L127.864 39.5044H125.619L124.148 35.3237H117.645L116.097 39.5044H113.852ZM118.264 33.4657H123.452L120.897 26.4979H120.819L118.264 33.4657Z" fill="white"/>
<path d="M131.422 39.5039L127.164 28.8975H129.332L132.429 37.1039H132.506L135.68 28.8975H137.771L133.435 39.5039H131.422Z" fill="white"/>
<path d="M142.19 39.8908C141.029 39.8908 140.1 39.5812 139.325 38.8844C138.551 38.265 138.164 37.336 138.164 36.3296C138.164 35.1683 138.629 34.2392 139.48 33.6199C140.409 33.0005 141.493 32.6134 142.809 32.6134C143.971 32.6134 144.977 32.8457 145.674 33.2328V33.0005C145.674 32.2263 145.441 31.607 144.9 31.1425C144.358 30.6779 143.738 30.4457 142.964 30.4457C142.422 30.4457 141.88 30.6005 141.416 30.8328C140.951 31.1425 140.641 31.4521 140.487 31.9941L138.629 31.2199C138.861 30.6005 139.325 29.9812 140.1 29.4392C140.796 28.8973 141.803 28.665 142.964 28.665C144.358 28.665 145.441 29.0521 146.371 29.8263C147.3 30.6005 147.687 31.7618 147.687 33.1554V39.5812H145.751V38.1102H145.674C144.9 39.2715 143.738 39.8908 142.19 39.8908ZM142.5 38.0328C143.351 38.0328 144.048 37.7231 144.745 37.1037C145.441 36.4844 145.751 35.7876 145.751 34.936C145.209 34.4715 144.358 34.2392 143.196 34.2392C142.19 34.2392 141.493 34.4715 141.029 34.8586C140.564 35.2457 140.254 35.7876 140.254 36.3296C140.254 36.8715 140.487 37.2586 140.951 37.5683C141.416 37.8779 141.88 38.0328 142.5 38.0328Z" fill="white"/>
<path d="M152.095 26.2652C151.786 26.5749 151.476 26.6523 151.089 26.6523C150.702 26.6523 150.392 26.4975 150.082 26.2652C149.773 25.9556 149.695 25.6459 149.695 25.2588C149.695 24.8717 149.85 24.562 150.082 24.2523C150.392 23.9427 150.702 23.8652 151.089 23.8652C151.476 23.8652 151.786 24.0201 152.095 24.2523C152.405 24.562 152.482 24.8717 152.482 25.2588C152.482 25.6459 152.328 25.9556 152.095 26.2652ZM152.095 39.5039H150.082V28.8975H152.095V39.5039Z" fill="white"/>
<path d="M156.661 39.5044H154.648V24.0205H156.661V39.5044Z" fill="white"/>
<path d="M162.315 39.8908C161.154 39.8908 160.225 39.5812 159.45 38.8844C158.676 38.265 158.289 37.336 158.289 36.3296C158.289 35.1683 158.754 34.2392 159.605 33.6199C160.534 33.0005 161.618 32.6134 162.934 32.6134C164.096 32.6134 165.102 32.8457 165.799 33.2328V33.0005C165.799 32.2263 165.566 31.607 165.025 31.1425C164.483 30.6779 163.863 30.4457 163.089 30.4457C162.547 30.4457 162.005 30.6005 161.541 30.8328C161.076 31.1425 160.766 31.4521 160.612 31.9941L158.754 31.2199C158.986 30.6005 159.45 29.9812 160.225 29.4392C160.921 28.8973 161.928 28.665 163.089 28.665C164.483 28.665 165.566 29.0521 166.496 29.8263C167.425 30.6005 167.812 31.7618 167.812 33.1554V39.5812H165.876V38.1102H165.799C165.025 39.2715 163.863 39.8908 162.315 39.8908ZM162.702 38.0328C163.554 38.0328 164.25 37.7231 164.947 37.1037C165.644 36.4844 165.954 35.7876 165.954 34.936C165.412 34.4715 164.56 34.2392 163.399 34.2392C162.392 34.2392 161.696 34.4715 161.231 34.8586C160.766 35.2457 160.457 35.7876 160.457 36.3296C160.457 36.8715 160.689 37.2586 161.154 37.5683C161.618 37.8779 162.083 38.0328 162.702 38.0328Z" fill="white"/>
<path d="M175.706 39.8915C174.932 39.8915 174.158 39.7366 173.539 39.3495C172.919 39.0399 172.377 38.5753 172.068 38.0334H171.99V39.5044H170.055V24.0205H172.068V28.8979L171.99 30.3689H172.068C172.377 29.827 172.842 29.4399 173.539 29.0528C174.235 28.6657 174.932 28.5108 175.706 28.5108C177.1 28.5108 178.261 29.0528 179.268 30.1366C180.274 31.2205 180.739 32.5366 180.739 34.1624C180.739 35.7882 180.274 37.1044 179.268 38.1882C178.261 39.3495 177.1 39.8915 175.706 39.8915ZM175.397 38.0334C176.326 38.0334 177.1 37.6463 177.797 36.9495C178.493 36.2528 178.803 35.3237 178.803 34.1624C178.803 33.0012 178.493 32.0721 177.797 31.3753C177.1 30.6786 176.326 30.2915 175.397 30.2915C174.468 30.2915 173.693 30.6012 172.997 31.2979C172.377 31.9947 171.99 32.9237 171.99 34.085C171.99 35.2463 172.3 36.1753 172.997 36.8721C173.616 37.7237 174.468 38.0334 175.397 38.0334Z" fill="white"/>
<path d="M184.458 39.5044H182.445V24.0205H184.458V39.5044Z" fill="white"/>
<path d="M191.583 39.8914C189.958 39.8914 188.641 39.3495 187.635 38.2656C186.629 37.1817 186.164 35.8656 186.164 34.2398C186.164 32.6914 186.629 31.3753 187.635 30.214C188.641 29.0527 189.88 28.5107 191.351 28.5107C192.9 28.5107 194.216 29.0527 195.145 30.0591C196.074 31.0656 196.538 32.4591 196.538 34.1624V34.5495H188.177C188.254 35.6333 188.564 36.4849 189.261 37.1043C189.88 37.7236 190.654 38.0333 191.583 38.0333C192.977 38.0333 193.983 37.414 194.525 36.1753L196.306 36.9495C195.996 37.8011 195.377 38.4978 194.603 39.0398C193.751 39.5817 192.745 39.8914 191.583 39.8914ZM194.448 32.9236C194.371 32.3043 194.138 31.7624 193.596 31.2204C193.054 30.6785 192.358 30.3688 191.274 30.3688C190.5 30.3688 189.88 30.6011 189.338 31.0656C188.796 31.5301 188.409 32.1495 188.254 32.9236H194.448Z" fill="white"/>
<path d="M205.361 26.2652C205.051 26.5749 204.742 26.6523 204.355 26.6523C203.967 26.6523 203.658 26.4975 203.348 26.2652C203.038 26.033 202.961 25.6459 202.961 25.2588C202.961 24.8717 203.116 24.562 203.348 24.2523C203.658 23.9427 203.967 23.8652 204.355 23.8652C204.742 23.8652 205.051 24.0201 205.361 24.2523C205.671 24.562 205.748 24.8717 205.748 25.2588C205.748 25.6459 205.593 25.9556 205.361 26.2652ZM205.361 39.5039H203.348V28.8975H205.361V39.5039Z" fill="white"/>
<path d="M209.85 28.8978V30.3688H209.927C210.237 29.8269 210.701 29.4398 211.321 29.0527C211.94 28.6656 212.637 28.5107 213.333 28.5107C214.65 28.5107 215.656 28.8978 216.353 29.7495C217.05 30.5236 217.359 31.6075 217.359 33.0011V39.5043H215.346V33.3107C215.346 31.3753 214.495 30.3688 212.714 30.3688C211.862 30.3688 211.243 30.6785 210.701 31.3753C210.159 32.072 209.927 32.7688 209.927 33.6978V39.5817H207.914V28.8978H209.85Z" fill="white"/>
<path d="M229.054 39.7356C227.97 39.7356 227.118 39.4259 226.499 38.8839C225.879 38.2646 225.647 37.4904 225.647 36.4065V30.8323H223.789V28.9743H225.647V25.7227H227.66V28.9743H230.292V30.8323H227.66V36.2517C227.66 37.413 228.125 37.9549 229.054 37.9549C229.441 37.9549 229.75 37.8775 229.983 37.8001L230.679 39.5033C230.215 39.5807 229.673 39.7356 229.054 39.7356Z" fill="white"/>
<path d="M234.239 24.0205V28.8979L234.162 30.3689H234.239C234.549 29.827 235.014 29.4399 235.633 29.0528C236.252 28.6657 236.949 28.5108 237.646 28.5108C238.962 28.5108 239.968 28.8979 240.665 29.7495C241.362 30.5237 241.672 31.6076 241.672 33.0012V39.5044H239.659V33.3108C239.659 31.3753 238.807 30.3689 237.027 30.3689C236.175 30.3689 235.556 30.6786 235.014 31.3753C234.472 32.0721 234.239 32.7689 234.239 33.6979V39.5818H232.227V24.0979H234.239V24.0205Z" fill="white"/>
<path d="M248.794 39.8914C247.169 39.8914 245.852 39.3495 244.846 38.2656C243.84 37.1817 243.375 35.8656 243.375 34.2398C243.375 32.6914 243.84 31.3753 244.846 30.214C245.852 29.0527 247.091 28.5107 248.562 28.5107C250.11 28.5107 251.427 29.0527 252.356 30.0591C253.285 31.0656 253.749 32.4591 253.749 34.1624V34.5495H245.388C245.465 35.6333 245.775 36.4849 246.472 37.1043C247.091 37.7236 247.865 38.0333 248.794 38.0333C250.188 38.0333 251.194 37.414 251.736 36.1753L253.517 36.9495C253.207 37.8011 252.588 38.4978 251.814 39.0398C250.962 39.5817 249.956 39.8914 248.794 39.8914ZM251.659 32.9236C251.581 32.3043 251.349 31.7624 250.807 31.2204C250.265 30.6785 249.569 30.3688 248.485 30.3688C247.71 30.3688 247.091 30.6011 246.549 31.0656C246.007 31.5301 245.62 32.1495 245.465 32.9236H251.659Z" fill="white"/>
<defs>
<linearGradient id="paint0_linear_6410_46480" x1="28.9219" y1="35.928" x2="84.0394" y2="35.928" gradientUnits="userSpaceOnUse">
<stop stop-color="#D93025"/>
<stop offset="1" stop-color="#EA4335"/>
</linearGradient>
<linearGradient id="paint1_linear_6410_46480" x1="59.9262" y1="77.7003" x2="32.3617" y2="29.9585" gradientUnits="userSpaceOnUse">
<stop stop-color="#1E8E3E"/>
<stop offset="1" stop-color="#34A853"/>
</linearGradient>
<linearGradient id="paint2_linear_6410_46480" x1="79.478" y1="31.886" x2="51.9144" y2="79.6263" gradientUnits="userSpaceOnUse">
<stop stop-color="#FBBC04"/>
<stop offset="1" stop-color="#FCC934"/>
</linearGradient>
</defs>
</svg>
