<svg width="329" height="97" viewBox="0 0 329 97" fill="none" xmlns="http://www.w3.org/2000/svg">
<rect y="0.0371094" width="328.66" height="96" rx="10" fill="black"/>
<path d="M50.7353 46.6016L24.2422 74.7196C24.2447 74.7245 24.2447 74.732 24.2472 74.737C25.0608 77.7902 27.8478 80.0371 31.1572 80.0371C32.481 80.0371 33.7227 79.6788 34.7877 79.0517L34.8723 79.002L64.6923 61.7952L50.7353 46.6016Z" fill="#EA4335"/>
<path d="M77.5367 41.8133L77.5118 41.7959L64.6372 34.3334L50.1328 47.2403L64.6895 61.792L77.4944 54.4042C79.7388 53.1899 81.2642 50.8235 81.2642 48.0963C81.2642 45.384 79.7612 43.0301 77.5367 41.8133Z" fill="#FBBC04"/>
<path d="M24.2439 21.3528C24.0846 21.94 24 22.5571 24 23.1941V72.8809C24 73.5179 24.0846 74.135 24.2463 74.7197L51.6477 47.3208L24.2439 21.3528Z" fill="#4285F4"/>
<path d="M50.9319 48.0371L64.6425 34.329L34.8574 17.06C33.7749 16.4106 32.5109 16.0373 31.1597 16.0373C27.8502 16.0373 25.0584 18.2893 24.2447 21.3449C24.2447 21.3474 24.2422 21.3499 24.2422 21.3524L50.9319 48.0371Z" fill="#34A853"/>
<path d="M120.259 23.9826C120.259 25.9536 119.676 27.5223 118.507 28.6936C117.178 30.086 115.45 30.7822 113.323 30.7822C111.284 30.7822 109.553 30.0766 108.13 28.6631C106.702 27.2519 105.992 25.4996 105.992 23.411C105.992 21.3201 106.702 19.5702 108.13 18.1567C109.553 16.7455 111.284 16.0375 113.323 16.0375C114.332 16.0375 115.301 16.2351 116.219 16.6302C117.138 17.0253 117.875 17.5498 118.427 18.2061L117.185 19.4479C116.252 18.3331 114.965 17.7733 113.323 17.7733C111.837 17.7733 110.553 18.2954 109.468 19.3397C108.384 20.3864 107.843 21.7411 107.843 23.411C107.843 25.0786 108.384 26.4357 109.468 27.48C110.553 28.5267 111.837 29.0464 113.323 29.0464C114.899 29.0464 116.212 28.5219 117.265 27.4706C117.947 26.7862 118.34 25.836 118.446 24.6129H113.323V22.9171H120.161C120.227 23.2864 120.259 23.6415 120.259 23.9826Z" fill="white"/>
<path d="M120.259 23.9826C120.259 25.9536 119.676 27.5223 118.507 28.6936C117.178 30.086 115.45 30.7822 113.323 30.7822C111.284 30.7822 109.553 30.0766 108.13 28.6631C106.702 27.2519 105.992 25.4996 105.992 23.411C105.992 21.3201 106.702 19.5702 108.13 18.1567C109.553 16.7455 111.284 16.0375 113.323 16.0375C114.332 16.0375 115.301 16.2351 116.219 16.6302C117.138 17.0253 117.875 17.5498 118.427 18.2061L117.185 19.4479C116.252 18.3331 114.965 17.7733 113.323 17.7733C111.837 17.7733 110.553 18.2954 109.468 19.3397C108.384 20.3864 107.843 21.7411 107.843 23.411C107.843 25.0786 108.384 26.4357 109.468 27.48C110.553 28.5267 111.837 29.0464 113.323 29.0464C114.899 29.0464 116.212 28.5219 117.265 27.4706C117.947 26.7862 118.34 25.836 118.446 24.6129H113.323V22.9171H120.161C120.227 23.2864 120.259 23.6415 120.259 23.9826Z" fill="white"/>
<path d="M131.098 18.0882H124.673V22.5617H130.468V24.2575H124.673V28.731H131.098V30.4668H122.859V16.3548H131.098V18.0882Z" fill="white"/>
<path d="M131.098 18.0882H124.673V22.5617H130.468V24.2575H124.673V28.731H131.098V30.4668H122.859V16.3548H131.098V18.0882Z" fill="white"/>
<path d="M138.748 30.4658H136.934V18.0872H132.992V16.3538H142.69V18.0872H138.748V30.4658Z" fill="white"/>
<path d="M138.748 30.4658H136.934V18.0872H132.992V16.3538H142.69V18.0872H138.748V30.4658Z" fill="white"/>
<path d="M149.703 16.3538H151.517V30.4658H149.703V16.3538Z" fill="white"/>
<path d="M159.56 30.4658H157.747V18.0872H153.805V16.3538H163.502V18.0872H159.56V30.4658Z" fill="white"/>
<path d="M159.56 30.4658H157.747V18.0872H153.805V16.3538H163.502V18.0872H159.56V30.4658Z" fill="white"/>
<path d="M172.855 27.4612C173.899 28.5196 175.176 29.0464 176.689 29.0464C178.201 29.0464 179.478 28.5196 180.523 27.4612C181.567 26.4028 182.091 25.0527 182.091 23.411C182.091 21.7693 181.567 20.4169 180.523 19.3609C179.478 18.3025 178.201 17.7733 176.689 17.7733C175.176 17.7733 173.899 18.3025 172.855 19.3609C171.813 20.4169 171.289 21.7693 171.289 23.411C171.289 25.0527 171.813 26.4028 172.855 27.4612ZM181.863 28.6419C180.475 30.0696 178.751 30.7822 176.689 30.7822C174.626 30.7822 172.902 30.0696 171.517 28.6419C170.129 27.2166 169.438 25.4737 169.438 23.411C169.438 21.3483 170.129 19.6031 171.517 18.1778C172.902 16.7525 174.626 16.0375 176.689 16.0375C178.74 16.0375 180.459 16.7549 181.854 18.1872C183.246 19.6196 183.942 21.3601 183.942 23.411C183.942 25.4737 183.248 27.2166 181.863 28.6419Z" fill="white"/>
<path d="M172.855 27.4612C173.899 28.5196 175.176 29.0464 176.689 29.0464C178.201 29.0464 179.478 28.5196 180.523 27.4612C181.567 26.4028 182.091 25.0527 182.091 23.411C182.091 21.7693 181.567 20.4169 180.523 19.3609C179.478 18.3025 178.201 17.7733 176.689 17.7733C175.176 17.7733 173.899 18.3025 172.855 19.3609C171.813 20.4169 171.289 21.7693 171.289 23.411C171.289 25.0527 171.813 26.4028 172.855 27.4612ZM181.863 28.6419C180.475 30.0696 178.751 30.7822 176.689 30.7822C174.626 30.7822 172.902 30.0696 171.517 28.6419C170.129 27.2166 169.438 25.4737 169.438 23.411C169.438 21.3483 170.129 19.6031 171.517 18.1778C172.902 16.7525 174.626 16.0375 176.689 16.0375C178.74 16.0375 180.459 16.7549 181.854 18.1872C183.246 19.6196 183.942 21.3601 183.942 23.411C183.942 25.4737 183.248 27.2166 181.863 28.6419Z" fill="white"/>
<path d="M186.484 30.4658V16.3538H188.691L195.549 27.3306H195.629L195.549 24.6117V16.3538H197.365V30.4658H195.471L188.295 18.9551H188.218L188.295 21.6764V30.4658H186.484Z" fill="white"/>
<path d="M186.484 30.4658V16.3538H188.691L195.549 27.3306H195.629L195.549 24.6117V16.3538H197.365V30.4658H195.471L188.295 18.9551H188.218L188.295 21.6764V30.4658H186.484Z" fill="white"/>
<path d="M260.249 70.4503H264.638V41.0479H260.249V70.4503ZM299.779 51.639L294.748 64.3869H294.597L289.376 51.639H284.648L292.478 69.4554L288.016 79.3668H292.591L304.659 51.639H299.779ZM274.89 67.1105C273.451 67.1105 271.447 66.3931 271.447 64.6127C271.447 62.3453 273.942 61.4751 276.099 61.4751C278.028 61.4751 278.938 61.8914 280.109 62.4582C279.768 65.1818 277.423 67.1105 274.89 67.1105ZM275.419 50.9969C272.242 50.9969 268.949 52.3963 267.589 55.4986L271.484 57.1239C272.317 55.4986 273.867 54.9671 275.494 54.9671C277.764 54.9671 280.071 56.3289 280.109 58.7515V59.0525C279.314 58.5986 277.614 57.9188 275.532 57.9188C271.334 57.9188 267.058 60.2262 267.058 64.5374C267.058 68.4723 270.501 71.0078 274.358 71.0078C277.31 71.0078 278.938 69.6836 279.958 68.1313H280.109V70.4009H284.345V59.1278C284.345 53.9087 280.45 50.9969 275.419 50.9969ZM248.296 55.2187H242.054V45.1404H248.296C251.577 45.1404 253.44 47.857 253.44 50.1784C253.44 52.4575 251.577 55.2187 248.296 55.2187ZM248.183 41.0479H237.667V70.4503H242.054V59.3112H248.183C253.047 59.3112 257.828 55.7879 257.828 50.1784C257.828 44.5689 253.047 41.0479 248.183 41.0479ZM190.839 67.1152C187.807 67.1152 185.269 64.5774 185.269 61.0917C185.269 57.5684 187.807 54.9906 190.839 54.9906C193.833 54.9906 196.18 57.5684 196.18 61.0917C196.18 64.5774 193.833 67.1152 190.839 67.1152ZM195.879 53.2854H195.726C194.741 52.1117 192.847 51.051 190.46 51.051C185.457 51.051 180.873 55.4445 180.873 61.0917C180.873 66.6989 185.457 71.0571 190.46 71.0571C192.847 71.0571 194.741 69.9964 195.726 68.7828H195.879V70.2245C195.879 74.0513 193.833 76.0975 190.535 76.0975C187.845 76.0975 186.177 74.1641 185.495 72.5342L181.668 74.1265C182.767 76.7796 185.685 80.0371 190.535 80.0371C195.688 80.0371 200.047 77.0054 200.047 69.6177V51.6555H195.879V53.2854ZM203.078 70.4503H207.474V41.0456H203.078V70.4503ZM213.952 60.7507C213.839 56.8863 216.946 54.9153 219.18 54.9153C220.926 54.9153 222.403 55.7856 222.894 57.0368L213.952 60.7507ZM227.593 57.4155C226.761 55.1811 224.221 51.051 219.03 51.051C213.877 51.051 209.596 55.1035 209.596 61.0541C209.596 66.6612 213.839 71.0571 219.521 71.0571C224.108 71.0571 226.761 68.2536 227.859 66.6236L224.449 64.3492C223.313 66.0168 221.758 67.1152 219.521 67.1152C217.287 67.1152 215.695 66.0921 214.672 64.0858L228.047 58.5515L227.593 57.4155ZM121.029 54.1204V58.3634H131.182C130.879 60.7507 130.084 62.4935 128.873 63.7048C127.393 65.1842 125.081 66.8141 121.029 66.8141C114.775 66.8141 109.887 61.7738 109.887 55.5222C109.887 49.2682 114.775 44.2302 121.029 44.2302C124.402 44.2302 126.864 45.5567 128.682 47.2619L131.676 44.2678C129.136 41.8429 125.766 39.9848 121.029 39.9848C112.465 39.9848 105.266 46.9585 105.266 55.5222C105.266 64.0858 112.465 71.0571 121.029 71.0571C125.65 71.0571 129.136 69.5401 131.864 66.6989C134.67 63.8953 135.541 59.9557 135.541 56.7711C135.541 55.7856 135.465 54.8777 135.313 54.1204H121.029ZM147.087 67.1152C144.055 67.1152 141.439 64.615 141.439 61.0541C141.439 57.4531 144.055 54.9906 147.087 54.9906C150.116 54.9906 152.731 57.4531 152.731 61.0541C152.731 64.615 150.116 67.1152 147.087 67.1152ZM147.087 51.051C141.552 51.051 137.044 55.2564 137.044 61.0541C137.044 66.8141 141.552 71.0571 147.087 71.0571C152.619 71.0571 157.127 66.8141 157.127 61.0541C157.127 55.2564 152.619 51.051 147.087 51.051ZM168.991 67.1152C165.959 67.1152 163.344 64.615 163.344 61.0541C163.344 57.4531 165.959 54.9906 168.991 54.9906C172.023 54.9906 174.636 57.4531 174.636 61.0541C174.636 64.615 172.023 67.1152 168.991 67.1152ZM168.991 51.051C163.459 51.051 158.95 55.2564 158.95 61.0541C158.95 66.8141 163.459 71.0571 168.991 71.0571C174.523 71.0571 179.032 66.8141 179.032 61.0541C179.032 55.2564 174.523 51.051 168.991 51.051Z" fill="white"/>
</svg>
