<svg width="21" height="20" viewBox="0 0 21 20" fill="none" xmlns="http://www.w3.org/2000/svg">
<path d="M9.32682 12.4584L7.78516 14C7.46016 14.325 6.94349 14.325 6.61016 14.0084C6.51849 13.9167 6.42682 13.8334 6.33516 13.7417C5.47682 12.875 4.70182 11.9667 4.01016 11.0167C3.32682 10.0667 2.77682 9.11669 2.37682 8.17502C1.98516 7.22502 1.78516 6.31669 1.78516 5.45002C1.78516 4.88335 1.88516 4.34169 2.08516 3.84169C2.28516 3.33335 2.60182 2.86669 3.04349 2.45002C3.57682 1.92502 4.16016 1.66669 4.77682 1.66669C5.01016 1.66669 5.24349 1.71669 5.45182 1.81669C5.66849 1.91669 5.86016 2.06669 6.01016 2.28335L7.94349 5.00835C8.09349 5.21669 8.20182 5.40835 8.27682 5.59169C8.35182 5.76669 8.39349 5.94169 8.39349 6.10002C8.39349 6.30002 8.33516 6.50002 8.21849 6.69169C8.11016 6.88335 7.95182 7.08335 7.75182 7.28335L7.11849 7.94169C7.02682 8.03335 6.98516 8.14169 6.98516 8.27502C6.98516 8.34169 6.99349 8.40002 7.01016 8.46669C7.03516 8.53335 7.06016 8.58335 7.07682 8.63335C7.22682 8.90835 7.48516 9.26669 7.85182 9.70002C8.22682 10.1334 8.62682 10.575 9.06016 11.0167C9.14349 11.1 9.23516 11.1834 9.31849 11.2667C9.65182 11.5917 9.66016 12.125 9.32682 12.4584Z" fill="#253343"/>
<path d="M18.4255 15.275C18.4255 15.5083 18.3839 15.75 18.3005 15.9833C18.2755 16.05 18.2505 16.1167 18.2172 16.1833C18.0755 16.4833 17.8922 16.7667 17.6505 17.0333C17.2422 17.4833 16.7922 17.8083 16.2839 18.0167C16.2755 18.0167 16.2672 18.025 16.2589 18.025C15.7672 18.225 15.2339 18.3333 14.6589 18.3333C13.8089 18.3333 12.9005 18.1333 11.9422 17.725C10.9839 17.3167 10.0255 16.7667 9.07552 16.075C8.75052 15.8333 8.42552 15.5917 8.11719 15.3333L10.8422 12.6083C11.0755 12.7833 11.2839 12.9167 11.4589 13.0083C11.5005 13.025 11.5505 13.05 11.6089 13.075C11.6755 13.1 11.7422 13.1083 11.8172 13.1083C11.9589 13.1083 12.0672 13.0583 12.1589 12.9667L12.7922 12.3417C13.0005 12.1333 13.2005 11.975 13.3922 11.875C13.5839 11.7583 13.7755 11.7 13.9839 11.7C14.1422 11.7 14.3089 11.7333 14.4922 11.8083C14.6755 11.8833 14.8672 11.9917 15.0755 12.1333L17.8339 14.0917C18.0505 14.2417 18.2005 14.4167 18.2922 14.625C18.3755 14.8333 18.4255 15.0417 18.4255 15.275Z" fill="#253343"/>
</svg>
