<svg width="17" height="16" viewBox="0 0 17 16" fill="none" xmlns="http://www.w3.org/2000/svg">
<path d="M9.26238 7.92C9.00102 8.31461 8.60962 8.97533 8.22474 9.88796C7.79491 10.9072 7.3733 12.2406 7.1519 13.8665C6.59722 13.8063 5.1514 13.516 3.85992 12.1177C3.8516 12.1087 3.84288 12.0997 3.83368 12.0921C2.44457 10.8031 2.15556 9.36331 2.09542 8.81005C3.7213 8.58866 5.05478 8.16705 6.07398 7.73722C6.98662 7.35234 7.64732 6.96094 8.04194 6.69958L8.65216 7.3098L9.26238 7.92ZM8.71556 10.0947C9.14276 9.08176 9.57811 8.39455 9.81668 8.05398C9.9006 7.94902 9.89396 7.79548 9.79672 7.69824L9.03019 6.93175L8.2676 6.16917C8.17773 6.07526 8.03031 6.05857 7.92078 6.13567C7.58489 6.37214 6.8933 6.81366 5.8672 7.24639C4.83828 7.68032 3.47328 8.10595 1.79201 8.31058C1.65352 8.32149 1.545 8.43779 1.54596 8.57889C1.54599 8.61218 1.55254 10.7057 3.47488 12.4871C5.15242 14.2974 7.10704 14.4078 7.35694 14.4145C7.50184 14.4298 7.63269 14.326 7.65026 14.1808C7.85443 12.4949 8.28076 11.1257 8.71556 10.0947Z" fill="white" fill-opacity="0.87"/>
<path d="M2.46869 10.8367C2.32336 10.8603 2.18636 10.7617 2.16272 10.6164C2.13908 10.471 2.23773 10.334 2.38306 10.3104C4.21691 10.0064 5.84335 8.82358 6.27084 8.51267L6.29428 8.49563C6.41367 8.40912 6.58059 8.43577 6.6671 8.55516C6.7536 8.67454 6.72695 8.84146 6.60757 8.92797L6.58412 8.94501C6.13577 9.27109 4.43003 10.5116 2.46869 10.8367ZM7.05592 9.37632C7.14242 9.25694 7.30935 9.23029 7.42873 9.31679C7.54811 9.4033 7.57477 9.57022 7.48826 9.68961L7.47122 9.71305C7.1603 10.1406 5.97747 11.767 5.67349 13.6008C5.64985 13.7462 5.51286 13.8448 5.36752 13.8212C5.22219 13.7975 5.12353 13.6605 5.14718 13.5152C5.47228 11.5539 6.71281 9.84813 7.03888 9.39978L7.05592 9.37632Z" fill="white" fill-opacity="0.87"/>
<path d="M9.61531 7.50888L8.46087 6.35443L8.54187 6.27341C8.70036 6.11493 8.90963 6.03566 9.1191 6.03566C9.32855 6.03566 9.53782 6.11493 9.69631 6.27341C9.85479 6.4319 9.93407 6.64118 9.93407 6.85063C9.93407 7.0601 9.8548 7.26937 9.69632 7.42786L9.61531 7.50888ZM7.89382 6.54345L9.42479 8.07442C9.52919 8.17882 9.69995 8.18034 9.80434 8.07594L10.0743 7.80589C10.3373 7.54296 10.4688 7.19669 10.4688 6.85063C10.4688 6.50459 10.3373 6.15831 10.0743 5.89539C9.81143 5.63247 9.46514 5.50098 9.11909 5.50098C8.77304 5.50098 8.42676 5.63246 8.16384 5.89538L7.89531 6.16391C7.79092 6.26831 7.78942 6.43905 7.89382 6.54345Z" fill="white" fill-opacity="0.87"/>
<path d="M13.9116 1.66307C14.0154 1.55869 14.1842 1.55821 14.2886 1.66202C14.393 1.76584 14.3934 1.93463 14.2896 2.03901L10.0712 6.27852C9.96739 6.3829 9.7986 6.38338 9.69422 6.27956C9.58984 6.17575 9.58936 6.00696 9.69318 5.90258L13.9116 1.66307Z" fill="white" fill-opacity="0.87"/>
<path opacity="0.945" fill-rule="evenodd" clip-rule="evenodd" d="M3.10147 3.9707C3.60107 4.0317 3.8146 4.31295 3.7421 4.81445C3.52235 5.24883 3.19422 5.3582 2.75772 5.14258C2.41442 4.8042 2.404 4.46045 2.72647 4.11133C2.84525 4.03583 2.97025 3.98895 3.10147 3.9707Z" fill="white" fill-opacity="0.87"/>
<path opacity="0.944" fill-rule="evenodd" clip-rule="evenodd" d="M2.00141 6.4719C2.24741 6.42359 2.4109 6.51613 2.49186 6.74951C2.50079 7.11683 2.32496 7.2618 1.9644 7.18444C1.7366 7.03509 1.69033 6.84076 1.82559 6.60145C1.87723 6.54658 1.93583 6.5034 2.00141 6.4719Z" fill="white" fill-opacity="0.87"/>
<path opacity="0.944" fill-rule="evenodd" clip-rule="evenodd" d="M3.37641 5.72678C3.62241 5.67848 3.7859 5.77101 3.86686 6.0044C3.87579 6.37172 3.69996 6.51669 3.3394 6.43933C3.1116 6.28997 3.06533 6.09564 3.20059 5.85633C3.25223 5.80146 3.31083 5.75828 3.37641 5.72678Z" fill="white" fill-opacity="0.87"/>
</svg>
