<svg width="13" height="13" viewBox="0 0 13 13" fill="none" xmlns="http://www.w3.org/2000/svg">
<path d="M0.513955 11.0428C0.154047 11.4028 0.146702 12.0418 0.5213 12.4164C0.903243 12.791 1.54226 12.7836 1.89483 12.4311L6.24311 8.08279L10.584 12.4237C10.9513 12.791 11.583 12.791 11.9576 12.4164C12.3322 12.0344 12.3322 11.4101 11.9649 11.0428L7.62398 6.70191L11.9649 2.35364C12.3322 1.98639 12.3395 1.35471 11.9576 0.980116C11.583 0.605518 10.9513 0.605518 10.584 0.97277L6.24311 5.3137L1.89483 0.97277C1.54226 0.612863 0.895898 0.598173 0.5213 0.980116C0.146702 1.35471 0.154047 2.00108 0.513955 2.35364L4.85489 6.70191L0.513955 11.0428Z" fill="white"/>
</svg>
