<svg width="25" height="25" viewBox="0 0 25 25" fill="none" xmlns="http://www.w3.org/2000/svg">
<g clip-path="url(#clip0_7693_61568)">
<path opacity="0.984" fill-rule="evenodd" clip-rule="evenodd" d="M24.5547 3.81543C24.5547 3.97168 24.5547 4.12793 24.5547 4.28418C24.4699 4.4079 24.3605 4.50946 24.2266 4.58887C22.711 4.61231 21.1954 4.62012 19.6797 4.61231C19.6875 6.15927 19.6797 7.70615 19.6562 9.25293C19.6015 9.49513 19.4531 9.64354 19.2109 9.69824C14.7734 9.72951 10.336 9.72951 5.89844 9.69824C5.65623 9.64354 5.50783 9.49513 5.45312 9.25293C5.42969 7.70615 5.42186 6.15927 5.42969 4.61231C4.55469 4.61231 3.67969 4.61231 2.80469 4.61231C2.79687 6.25302 2.80469 7.89365 2.82812 9.53418C3.18528 9.84927 3.29466 10.2399 3.15625 10.7061C2.74277 11.4166 2.18808 11.5494 1.49219 11.1045C1.04275 10.5622 1.05838 10.0388 1.53906 9.53418C1.58593 7.89384 1.60156 6.25321 1.58594 4.61231C1.35104 4.62008 1.11667 4.61227 0.882812 4.58887C0.748862 4.50946 0.639486 4.4079 0.554688 4.28418C0.554688 4.12793 0.554688 3.97168 0.554688 3.81543C0.643972 3.64049 0.784597 3.52331 0.976562 3.46387C8.69533 3.43262 16.414 3.43262 24.1328 3.46387C24.3248 3.52331 24.4654 3.64049 24.5547 3.81543Z" fill="white" fill-opacity="0.38"/>
<path opacity="0.973" fill-rule="evenodd" clip-rule="evenodd" d="M8.00782 10.3779C12.9922 10.3701 17.9766 10.3779 22.9609 10.4014C23.4 10.6921 23.4469 11.0359 23.1016 11.4326C22.8961 11.5361 22.6773 11.5752 22.4453 11.5498C22.4453 12.5029 22.4453 13.4561 22.4453 14.4092C22.8582 14.307 23.1472 14.4477 23.3125 14.8311C23.3609 15.1732 23.2281 15.4153 22.9141 15.5576C17.9127 15.6039 12.9127 15.5883 7.91407 15.5107C7.1735 15.2885 6.72818 14.7963 6.57814 14.0342C6.54687 13.3311 6.54687 12.6279 6.57814 11.9248C6.7414 11.1134 7.21793 10.5977 8.00782 10.3779ZM8.28907 11.5498C12.6172 11.5498 16.9453 11.5498 21.2734 11.5498C21.2734 12.5029 21.2734 13.4561 21.2734 14.4092C16.8968 14.4321 12.5217 14.4086 8.14845 14.3389C7.92504 14.225 7.7922 14.0453 7.75001 13.7998C7.71875 13.2373 7.71875 12.6748 7.75001 12.1123C7.8132 11.807 7.99287 11.6195 8.28907 11.5498Z" fill="white" fill-opacity="0.38"/>
<path opacity="0.991" fill-rule="evenodd" clip-rule="evenodd" d="M3.22653 16.2842C8.97654 16.2764 14.7266 16.2842 20.4765 16.3076C20.8357 16.4805 20.9529 16.7539 20.8281 17.1279C20.6189 17.429 20.3299 17.5384 19.9609 17.4561C19.9609 18.7061 19.9609 19.956 19.9609 21.2061C20.6404 21.1122 20.9294 21.3934 20.8281 22.0498C20.7398 22.185 20.6226 22.2866 20.4765 22.3545C14.7578 22.3858 9.03903 22.3858 3.32028 22.3545C2.46245 22.2031 1.90776 21.7109 1.65621 20.8779C1.58233 19.9576 1.5667 19.0357 1.60934 18.1123C1.72776 17.1269 2.26682 16.5175 3.22653 16.2842Z" fill="white" fill-opacity="0.38"/>
</g>
<defs>
<clipPath id="clip0_7693_61568">
<rect width="24" height="24" fill="white" transform="translate(0.578125 0.932617)"/>
</clipPath>
</defs>
</svg>
