<svg width="18" height="19" viewBox="0 0 18 19" fill="none" xmlns="http://www.w3.org/2000/svg">
<path d="M15.5737 4.17273C15.5737 4.17273 15.5938 4.09273 15.5938 4.05273C15.5938 1.98273 13.9137 0.302734 11.8438 0.302734H5.84375C3.77375 0.302734 2.09375 1.98273 2.09375 4.05273C2.09375 4.09273 2.11375 4.13273 2.11375 4.17273C0.89375 5.03273 0.09375 6.44273 0.09375 8.05273V14.0527C0.09375 16.6727 2.22375 18.8027 4.84375 18.8027H12.8438C15.4637 18.8027 17.5938 16.6727 17.5938 14.0527V8.05273C17.5938 6.45273 16.7937 5.03273 15.5737 4.17273ZM10.8438 11.8027H9.59375V13.0527C9.59375 13.4627 9.25375 13.8027 8.84375 13.8027C8.43375 13.8027 8.09375 13.4627 8.09375 13.0527V11.8027H6.84375C6.43375 11.8027 6.09375 11.4627 6.09375 11.0527C6.09375 10.6427 6.43375 10.3027 6.84375 10.3027H8.09375V9.05273C8.09375 8.64273 8.43375 8.30273 8.84375 8.30273C9.25375 8.30273 9.59375 8.64273 9.59375 9.05273V10.3027H10.8438C11.2537 10.3027 11.5938 10.6427 11.5938 11.0527C11.5938 11.4627 11.2537 11.8027 10.8438 11.8027ZM12.8438 3.30273H4.84375C4.44375 3.30273 4.05375 3.37273 3.68375 3.46273C3.94375 2.51273 4.81375 1.80273 5.84375 1.80273H11.8438C12.8837 1.80273 13.7437 2.51273 14.0037 3.46273C13.6337 3.37273 13.2437 3.30273 12.8438 3.30273Z" fill="white" fill-opacity="0.38"/>
</svg>
