<svg width="21" height="20" viewBox="0 0 21 20" fill="none" xmlns="http://www.w3.org/2000/svg">
<path d="M6.49297 17.425C6.46797 17.425 6.43464 17.4416 6.40964 17.4416C4.79297 16.6416 3.4763 15.3166 2.66797 13.7C2.66797 13.675 2.68464 13.6416 2.68464 13.6166C3.7013 13.9166 4.7513 14.1416 5.79297 14.3166C5.9763 15.3666 6.19297 16.4083 6.49297 17.425Z" fill="#253343"/>
<path d="M17.5664 13.7083C16.7414 15.3666 15.3664 16.7083 13.6914 17.5166C14.0081 16.4583 14.2747 15.3916 14.4497 14.3166C15.4997 14.1416 16.5331 13.9166 17.5497 13.6166C17.5414 13.65 17.5664 13.6833 17.5664 13.7083Z" fill="#253343"/>
<path d="M17.6331 6.425C16.5831 6.10834 15.5247 5.85 14.4497 5.66667C14.2747 4.59167 14.0164 3.525 13.6914 2.48334C15.4164 3.30834 16.8081 4.7 17.6331 6.425Z" fill="#253343"/>
<path d="M6.49323 2.57499C6.19323 3.59165 5.97656 4.62499 5.80156 5.67499C4.72656 5.84165 3.6599 6.10832 2.60156 6.42499C3.4099 4.74999 4.75156 3.37499 6.4099 2.54999C6.4349 2.54999 6.46823 2.57499 6.49323 2.57499Z" fill="#253343"/>
<path d="M13.0237 5.49169C11.0904 5.27502 9.14036 5.27502 7.20703 5.49169C7.41536 4.35002 7.68203 3.20835 8.05703 2.10835C8.0737 2.04169 8.06536 1.99169 8.0737 1.92502C8.73203 1.76669 9.40703 1.66669 10.1154 1.66669C10.8154 1.66669 11.4987 1.76669 12.1487 1.92502C12.157 1.99169 12.157 2.04169 12.1737 2.10835C12.5487 3.21669 12.8154 4.35002 13.0237 5.49169Z" fill="#253343"/>
<path d="M5.61016 12.9083C4.46016 12.7 3.32682 12.4333 2.22682 12.0583C2.16016 12.0417 2.11016 12.05 2.04349 12.0417C1.88516 11.3833 1.78516 10.7083 1.78516 10C1.78516 9.30001 1.88516 8.61667 2.04349 7.96667C2.11016 7.95834 2.16016 7.95834 2.22682 7.94167C3.33516 7.57501 4.46016 7.30001 5.61016 7.09167C5.40182 9.02501 5.40182 10.975 5.61016 12.9083Z" fill="#253343"/>
<path d="M18.45 10C18.45 10.7083 18.35 11.3833 18.1917 12.0417C18.125 12.05 18.075 12.0417 18.0083 12.0583C16.9 12.425 15.7667 12.7 14.625 12.9083C14.8417 10.975 14.8417 9.02501 14.625 7.09167C15.7667 7.30001 16.9083 7.56667 18.0083 7.94167C18.075 7.95834 18.125 7.96667 18.1917 7.96667C18.35 8.62501 18.45 9.30001 18.45 10Z" fill="#253343"/>
<path d="M13.0237 14.5084C12.8154 15.6584 12.5487 16.7917 12.1737 17.8917C12.157 17.9584 12.157 18.0084 12.1487 18.075C11.4987 18.2334 10.8154 18.3334 10.1154 18.3334C9.40703 18.3334 8.73203 18.2334 8.0737 18.075C8.06536 18.0084 8.0737 17.9584 8.05703 17.8917C7.69036 16.7834 7.41536 15.6584 7.20703 14.5084C8.1737 14.6167 9.14036 14.6917 10.1154 14.6917C11.0904 14.6917 12.0654 14.6167 13.0237 14.5084Z" fill="#253343"/>
<path d="M13.2546 13.1361C11.1704 13.3991 9.06663 13.3991 6.98238 13.1361C6.71941 11.0519 6.71941 8.94816 6.98238 6.86391C9.06663 6.60095 11.1704 6.60095 13.2546 6.86391C13.5176 8.94816 13.5176 11.0519 13.2546 13.1361Z" fill="#253343"/>
</svg>
