<svg width="25" height="25" viewBox="0 0 25 25" fill="none" xmlns="http://www.w3.org/2000/svg">
<g clip-path="url(#clip0_7832_59590)">
<path opacity="0.97" fill-rule="evenodd" clip-rule="evenodd" d="M12.6328 0.90918C12.7578 0.90918 12.8828 0.90918 13.0078 0.90918C13.0635 0.949662 13.1182 0.996537 13.1719 1.0498C13.4021 1.52591 13.6443 1.99466 13.8984 2.45605C14.4138 2.53975 14.9295 2.62568 15.4453 2.71387C15.5469 2.75293 15.6172 2.82324 15.6563 2.9248C15.6946 3.08719 15.6789 3.24344 15.6094 3.39355C15.2358 3.72021 14.8764 4.06396 14.5313 4.4248C14.5749 4.84682 14.6374 5.2687 14.7188 5.69043C14.8505 6.08005 14.7255 6.33004 14.3438 6.44043C13.8201 6.22157 13.3123 5.97154 12.8203 5.69043C12.3284 5.97154 11.8206 6.22157 11.2969 6.44043C11.0234 6.38605 10.8906 6.22199 10.8984 5.94824C10.9718 5.43828 11.0421 4.93047 11.1094 4.4248C10.7319 4.04727 10.3569 3.67227 9.98439 3.2998C9.95312 3.15918 9.95312 3.01855 9.98439 2.87793C10.0413 2.80533 10.1116 2.75064 10.1953 2.71387C10.7294 2.62869 11.2607 2.53494 11.7891 2.43262C12.0089 1.96952 12.2355 1.50858 12.4688 1.0498C12.5224 0.996537 12.5771 0.949662 12.6328 0.90918Z" fill="white" fill-opacity="0.38"/>
<path opacity="0.941" fill-rule="evenodd" clip-rule="evenodd" d="M7.80792 3.72168C8.06629 3.77667 8.23813 3.93292 8.32354 4.19043C8.9932 4.30172 9.11038 4.61422 8.6751 5.12793C8.76801 5.85557 8.47893 6.07429 7.80792 5.78418C7.20013 6.06623 6.93449 5.87873 7.01104 5.22168C6.49996 4.68123 6.60937 4.33748 7.33917 4.19043C7.39387 4.08106 7.44853 3.97168 7.50323 3.8623C7.60476 3.80458 7.70634 3.7577 7.80792 3.72168Z" fill="white" fill-opacity="0.38"/>
<path opacity="0.941" fill-rule="evenodd" clip-rule="evenodd" d="M17.7885 3.72168C17.899 3.75337 18.0084 3.79243 18.1166 3.83887C18.1851 3.95233 18.2476 4.06952 18.3041 4.19043C19.0339 4.33748 19.1433 4.68123 18.6322 5.22168C18.7088 5.87873 18.4431 6.06623 17.8353 5.78418C17.1587 6.06805 16.8697 5.84934 16.9682 5.12793C16.5329 4.61422 16.6501 4.30172 17.3197 4.19043C17.4031 3.9508 17.5593 3.79456 17.7885 3.72168Z" fill="white" fill-opacity="0.38"/>
<path opacity="0.936" fill-rule="evenodd" clip-rule="evenodd" d="M4.19384 5.73726C4.52814 5.72737 4.7469 5.8836 4.85009 6.20601C5.3298 6.22363 5.50949 6.45801 5.38915 6.90913C5.31102 6.98727 5.2329 7.06537 5.15477 7.14351C5.14262 7.26027 5.15044 7.37746 5.17821 7.49507C5.1574 7.76587 5.00896 7.91432 4.7329 7.94038C4.58051 7.90321 4.43988 7.84073 4.31102 7.75288C4.08135 7.95004 3.83917 7.97348 3.58446 7.8232C3.44273 7.6153 3.40366 7.38871 3.46727 7.14351C3.20783 6.94345 3.14533 6.69341 3.27977 6.39351C3.44602 6.29427 3.62571 6.22396 3.81884 6.18257C3.88499 5.97721 4.00999 5.8288 4.19384 5.73726Z" fill="white" fill-opacity="0.38"/>
<path opacity="0.936" fill-rule="evenodd" clip-rule="evenodd" d="M21.1645 5.7373C21.5032 5.7112 21.7219 5.8596 21.8208 6.18262C21.9747 6.23535 22.1309 6.28223 22.2895 6.32324C22.5021 6.62999 22.463 6.90346 22.1723 7.14355C22.2422 7.38759 22.2032 7.61413 22.0551 7.82324C21.8004 7.97352 21.5583 7.95009 21.3286 7.75293C21.0057 8.03099 20.7245 7.99973 20.4848 7.65918C20.4718 7.48602 20.4718 7.31413 20.4848 7.14355C20.0964 6.85321 20.0885 6.56413 20.4614 6.27637C20.5735 6.26291 20.6828 6.23948 20.7895 6.20605C20.8934 6.02755 21.0184 5.87132 21.1645 5.7373Z" fill="white" fill-opacity="0.38"/>
<path opacity="0.99" fill-rule="evenodd" clip-rule="evenodd" d="M17.7448 24.9092C16.9011 24.9092 16.0573 24.9092 15.2136 24.9092C15.0941 24.8128 15.0238 24.6878 15.0027 24.5342C14.987 22.9561 14.9714 21.378 14.9558 19.7998C14.9038 19.6913 14.8178 19.621 14.698 19.5889C13.448 19.5576 12.198 19.5576 10.948 19.5889C10.8281 19.621 10.7421 19.6913 10.6902 19.7998C10.6745 21.378 10.6589 22.9561 10.6433 24.5342C10.6221 24.6878 10.5518 24.8128 10.4323 24.9092C9.5886 24.9092 8.74485 24.9092 7.9011 24.9092C7.83847 24.8384 7.78377 24.7603 7.73703 24.6748C7.69053 19.4697 7.70619 14.2666 7.78391 9.06544C8.00633 8.48921 8.42042 8.13764 9.0261 8.01075C11.5573 7.97949 14.0886 7.97949 16.6198 8.01075C17.2255 8.13764 17.6396 8.48921 17.862 9.06544C17.9398 14.2666 17.9554 19.4697 17.9089 24.6748C17.8622 24.7603 17.8075 24.8384 17.7448 24.9092ZM10.4792 12.0654C12.0418 12.0576 13.6043 12.0654 15.1667 12.0889C15.4644 12.1921 15.5504 12.3874 15.4245 12.6748C15.3822 12.7311 15.3275 12.7702 15.2605 12.792C13.6355 12.8233 12.0105 12.8233 10.3855 12.792C10.1542 12.6671 10.0995 12.4874 10.2214 12.2529C10.2917 12.1606 10.3776 12.0982 10.4792 12.0654ZM11.2292 15.9092C12.2918 15.9014 13.3543 15.9092 14.4167 15.9326C14.748 16.0092 14.8495 16.2045 14.7214 16.5186C14.6596 16.6117 14.5737 16.6664 14.4636 16.6826C13.3699 16.7139 12.2761 16.7139 11.1823 16.6826C10.8846 16.5795 10.7987 16.3841 10.9245 16.0967C11.0085 15.9969 11.1101 15.9345 11.2292 15.9092Z" fill="white" fill-opacity="0.38"/>
<path opacity="0.976" fill-rule="evenodd" clip-rule="evenodd" d="M6.72656 24.9092C5.82033 24.9092 4.91406 24.9092 4.00781 24.9092C3.33828 24.7003 2.93984 24.2471 2.8125 23.5498C2.78125 20.7217 2.78125 17.8936 2.8125 15.0654C2.93608 14.3482 3.35014 13.9028 4.05469 13.7295C4.94531 13.6982 5.83594 13.6982 6.72656 13.7295C6.83484 13.8062 6.90516 13.9078 6.9375 14.0342C6.96877 17.5654 6.96877 21.0967 6.9375 24.6279C6.89981 24.752 6.8295 24.8457 6.72656 24.9092ZM5.13281 17.3154C5.2762 17.3294 5.39339 17.3918 5.48438 17.5029C5.53664 17.851 5.56008 18.2026 5.55469 18.5576C5.54686 18.8623 5.53908 19.167 5.53125 19.4717C5.34442 19.8516 5.11004 19.8828 4.82813 19.5654C4.79687 18.8936 4.79687 18.2217 4.82813 17.5498C4.91273 17.4408 5.0143 17.3627 5.13281 17.3154Z" fill="white" fill-opacity="0.38"/>
<path opacity="0.976" fill-rule="evenodd" clip-rule="evenodd" d="M21.6328 24.9092C20.7266 24.9092 19.8203 24.9092 18.9141 24.9092C18.8111 24.8457 18.7408 24.752 18.7031 24.6279C18.6719 21.0967 18.6719 17.5654 18.7031 14.0342C18.7355 13.9078 18.8058 13.8062 18.9141 13.7295C19.8047 13.6982 20.6953 13.6982 21.5859 13.7295C22.2905 13.9028 22.7046 14.3482 22.8281 15.0654C22.8594 17.8936 22.8594 20.7217 22.8281 23.5498C22.7008 24.2471 22.3023 24.7003 21.6328 24.9092ZM20.4141 17.3154C20.5845 17.3281 20.7174 17.4062 20.8125 17.5498C20.8438 18.2217 20.8438 18.8936 20.8125 19.5654C20.5572 19.8763 20.3228 19.8607 20.1094 19.5186C20.0781 18.8936 20.0781 18.2686 20.1094 17.6436C20.1571 17.4788 20.2587 17.3694 20.4141 17.3154Z" fill="white" fill-opacity="0.38"/>
<path opacity="0.985" fill-rule="evenodd" clip-rule="evenodd" d="M14.0391 24.9092C13.2266 24.9092 12.4141 24.9092 11.6016 24.9092C11.5567 24.8407 11.502 24.7782 11.4375 24.7217C11.4062 23.3311 11.4062 21.9405 11.4375 20.5498C11.5201 20.4201 11.6373 20.3498 11.7891 20.3389C12.4766 20.3076 13.1641 20.3076 13.8516 20.3389C14.0034 20.3498 14.1205 20.4201 14.2031 20.5498C14.2344 21.9405 14.2344 23.3311 14.2031 24.7217C14.1386 24.7782 14.084 24.8407 14.0391 24.9092Z" fill="white" fill-opacity="0.38"/>
</g>
<defs>
<clipPath id="clip0_7832_59590">
<rect width="24" height="24" fill="white" transform="translate(0.84375 0.932617)"/>
</clipPath>
</defs>
</svg>
