<svg width="17" height="16" viewBox="0 0 17 16" fill="none" xmlns="http://www.w3.org/2000/svg">
<g clip-path="url(#clip0_6166_38546)">
<path d="M9.83906 3.6724V7.0674C9.83906 7.9424 9.13656 8.6524 8.26906 8.6524H4.94406L2.76656 10.6474V8.6524H2.29656C1.42906 8.6524 0.726562 7.9424 0.726562 7.0674V3.6724C0.726562 2.7974 1.42906 2.0874 2.29656 2.0874H8.26656C9.13406 2.0874 9.83906 2.7974 9.83906 3.6724Z" stroke="white" stroke-opacity="0.87" stroke-width="0.5" stroke-miterlimit="10" stroke-linecap="round" stroke-linejoin="round"/>
<path d="M9.83531 5.24512H13.9228C14.7903 5.24512 15.4928 5.95512 15.4928 6.83012V10.2251C15.4928 11.1001 14.7903 11.8101 13.9228 11.8101H10.5978L8.42031 13.8051V11.8101H7.95281C7.08531 11.8101 6.38281 11.1001 6.38281 10.2251V8.65262" stroke="white" stroke-opacity="0.87" stroke-width="0.5" stroke-miterlimit="10" stroke-linecap="round" stroke-linejoin="round"/>
<path d="M3.70312 4.01758H6.85812" stroke="white" stroke-opacity="0.87" stroke-width="0.5" stroke-miterlimit="10" stroke-linecap="round" stroke-linejoin="round"/>
<path d="M6.32187 4.01758C6.32187 4.01758 6.23938 6.09508 4.04688 6.98508" stroke="white" stroke-opacity="0.87" stroke-width="0.5" stroke-miterlimit="10" stroke-linecap="round" stroke-linejoin="round"/>
<path d="M4.42969 4.8125C4.42969 4.8125 5.03969 6.585 6.59469 6.985" stroke="white" stroke-opacity="0.87" stroke-width="0.5" stroke-miterlimit="10" stroke-linecap="round" stroke-linejoin="round"/>
<path d="M5.28125 4.01758V3.58008" stroke="white" stroke-opacity="0.87" stroke-width="0.5" stroke-miterlimit="10" stroke-linecap="round" stroke-linejoin="round"/>
<path d="M12.9575 9.82486L12.3625 7.31986C12.315 7.12486 12.1425 6.98486 11.9425 6.98486H11.39C11.19 6.98486 11.0175 7.12236 10.97 7.31986L10.375 9.82486" stroke="white" stroke-opacity="0.87" stroke-width="0.5" stroke-miterlimit="10" stroke-linecap="round" stroke-linejoin="round"/>
<path d="M10.6953 8.47217H12.6353" stroke="white" stroke-opacity="0.87" stroke-width="0.5" stroke-miterlimit="10" stroke-linecap="round" stroke-linejoin="round"/>
</g>
<defs>
<clipPath id="clip0_6166_38546">
<rect width="16" height="16" fill="white" transform="translate(0.078125)"/>
</clipPath>
</defs>
</svg>
