<svg width="15" height="14" viewBox="0 0 15 14" fill="none" xmlns="http://www.w3.org/2000/svg">
<path d="M9.00932 4.89997V2.09999C9.00932 1.54304 8.78807 1.0089 8.39425 0.615072C8.00043 0.221248 7.46629 0 6.90933 0L4.10935 6.29996V13.9999H12.0053C12.3429 14.0037 12.6706 13.8854 12.9278 13.6667C13.1851 13.448 13.3547 13.1437 13.4053 12.8099L14.3713 6.50996C14.4017 6.30931 14.3882 6.10444 14.3316 5.90954C14.275 5.71464 14.1768 5.53437 14.0436 5.38123C13.9104 5.22808 13.7455 5.10572 13.5604 5.02262C13.3752 4.93952 13.1742 4.89767 12.9713 4.89997H9.00932ZM4.10935 13.9999H2.00937C1.63807 13.9999 1.28197 13.8524 1.01942 13.5899C0.756874 13.3273 0.609375 12.9712 0.609375 12.5999V7.69995C0.609375 7.32865 0.756874 6.97256 1.01942 6.71001C1.28197 6.44746 1.63807 6.29996 2.00937 6.29996H4.10935" fill="white" fill-opacity="0.6"/>
</svg>
