<svg width="15" height="16" viewBox="0 0 15 16" fill="none" xmlns="http://www.w3.org/2000/svg">
<path d="M4.10935 7.29996L6.90933 1C7.46629 1 8.00043 1.22125 8.39425 1.61507C8.78807 2.0089 9.00932 2.54304 9.00932 3.09999V5.89997H12.9713C13.1742 5.89767 13.3752 5.93952 13.5604 6.02262C13.7455 6.10572 13.9104 6.22808 14.0436 6.38123C14.1768 6.53437 14.275 6.71464 14.3316 6.90954C14.3882 7.10444 14.4017 7.30931 14.3713 7.50996L13.4053 13.8099C13.3547 14.1437 13.1851 14.448 12.9278 14.6667C12.6706 14.8854 12.3429 15.0037 12.0053 14.9999H4.10935M4.10935 7.29996V14.9999M4.10935 7.29996H2.00937C1.63807 7.29996 1.28197 7.44746 1.01942 7.71001C0.756874 7.97256 0.609375 8.32865 0.609375 8.69995V13.5999C0.609375 13.9712 0.756874 14.3273 1.01942 14.5899C1.28197 14.8524 1.63807 14.9999 2.00937 14.9999H4.10935" stroke="white" stroke-opacity="0.6" stroke-linecap="round" stroke-linejoin="round"/>
</svg>
