<svg width="21" height="20" viewBox="0 0 21 20" fill="none" xmlns="http://www.w3.org/2000/svg">
<path d="M15.3255 2.5H4.90885C3.64552 2.5 2.61719 3.52833 2.61719 4.79167V15.2083C2.61719 16.4717 3.64552 17.5 4.90885 17.5H15.3255C16.5889 17.5 17.6172 16.4717 17.6172 15.2083V4.79167C17.6172 3.52833 16.5889 2.5 15.3255 2.5ZM7.61719 14.1667C7.61719 14.3971 7.43094 14.5833 7.20052 14.5833H5.95052C5.7201 14.5833 5.53385 14.3971 5.53385 14.1667V8.75C5.53385 8.51958 5.7201 8.33333 5.95052 8.33333H7.20052C7.43094 8.33333 7.61719 8.51958 7.61719 8.75V14.1667ZM6.57552 7.5C6.0001 7.5 5.53385 7.03375 5.53385 6.45833C5.53385 5.88292 6.0001 5.41667 6.57552 5.41667C7.15094 5.41667 7.61719 5.88292 7.61719 6.45833C7.61719 7.03375 7.15094 7.5 6.57552 7.5ZM14.7005 14.1667C14.7005 14.3971 14.5143 14.5833 14.2839 14.5833H13.0339C12.8034 14.5833 12.6172 14.3971 12.6172 14.1667V11.0417C12.6172 10.4671 12.1501 10 11.5755 10C11.0009 10 10.5339 10.4671 10.5339 11.0417V14.1667C10.5339 14.3971 10.3476 14.5833 10.1172 14.5833H8.86719C8.63677 14.5833 8.45052 14.3971 8.45052 14.1667V8.75C8.45052 8.51958 8.63677 8.33333 8.86719 8.33333H10.1172C10.3476 8.33333 10.5339 8.51958 10.5339 8.75V8.97542C10.9768 8.5775 11.5597 8.33333 12.2005 8.33333C13.5793 8.33333 14.7005 9.45458 14.7005 10.8333V14.1667Z" fill="#253343"/>
</svg>
