<svg width="16" height="16" viewBox="0 0 16 16" fill="none" xmlns="http://www.w3.org/2000/svg">
<path d="M13.3255 0.5H2.90885C1.64552 0.5 0.617188 1.52833 0.617188 2.79167V13.2083C0.617188 14.4717 1.64552 15.5 2.90885 15.5H13.3255C14.5889 15.5 15.6172 14.4717 15.6172 13.2083V2.79167C15.6172 1.52833 14.5889 0.5 13.3255 0.5ZM5.61719 12.1667C5.61719 12.3971 5.43094 12.5833 5.20052 12.5833H3.95052C3.7201 12.5833 3.53385 12.3971 3.53385 12.1667V6.75C3.53385 6.51958 3.7201 6.33333 3.95052 6.33333H5.20052C5.43094 6.33333 5.61719 6.51958 5.61719 6.75V12.1667ZM4.57552 5.5C4.0001 5.5 3.53385 5.03375 3.53385 4.45833C3.53385 3.88292 4.0001 3.41667 4.57552 3.41667C5.15094 3.41667 5.61719 3.88292 5.61719 4.45833C5.61719 5.03375 5.15094 5.5 4.57552 5.5ZM12.7005 12.1667C12.7005 12.3971 12.5143 12.5833 12.2839 12.5833H11.0339C10.8034 12.5833 10.6172 12.3971 10.6172 12.1667V9.04167C10.6172 8.46708 10.1501 8 9.57552 8C9.00094 8 8.53385 8.46708 8.53385 9.04167V12.1667C8.53385 12.3971 8.3476 12.5833 8.11719 12.5833H6.86719C6.63677 12.5833 6.45052 12.3971 6.45052 12.1667V6.75C6.45052 6.51958 6.63677 6.33333 6.86719 6.33333H8.11719C8.3476 6.33333 8.53385 6.51958 8.53385 6.75V6.97542C8.97677 6.5775 9.55969 6.33333 10.2005 6.33333C11.5793 6.33333 12.7005 7.45458 12.7005 8.83333V12.1667Z" fill="#253343"/>
</svg>
