<svg width="25" height="25" viewBox="0 0 25 25" fill="none" xmlns="http://www.w3.org/2000/svg">
<g clip-path="url(#clip0_7706_63963)">
<path d="M12.5312 15.6953C14.1881 15.6953 15.5312 14.3522 15.5312 12.6953C15.5312 11.0385 14.1881 9.69531 12.5312 9.69531C10.8744 9.69531 9.53125 11.0385 9.53125 12.6953C9.53125 14.3522 10.8744 15.6953 12.5312 15.6953Z" stroke="white" stroke-opacity="0.6" stroke-width="2" stroke-linecap="round" stroke-linejoin="round"/>
<path d="M19.9312 15.6953C19.7981 15.9969 19.7584 16.3315 19.8172 16.6559C19.8761 16.9803 20.0307 17.2796 20.2612 17.5153L20.3213 17.5753C20.5072 17.7611 20.6547 17.9816 20.7554 18.2244C20.856 18.4672 20.9078 18.7275 20.9078 18.9903C20.9078 19.2531 20.856 19.5134 20.7554 19.7562C20.6547 19.999 20.5072 20.2196 20.3213 20.4053C20.1355 20.5913 19.9149 20.7388 19.6721 20.8394C19.4293 20.9401 19.1691 20.9919 18.9062 20.9919C18.6434 20.9919 18.3832 20.9401 18.1404 20.8394C17.8976 20.7388 17.677 20.5913 17.4912 20.4053L17.4312 20.3453C17.1956 20.1148 16.8962 19.9601 16.5718 19.9013C16.2474 19.8425 15.9129 19.8822 15.6112 20.0153C15.3155 20.1421 15.0632 20.3526 14.8856 20.6208C14.7079 20.8891 14.6125 21.2035 14.6112 21.5253V21.6953C14.6112 22.2257 14.4005 22.7345 14.0255 23.1095C13.6504 23.4846 13.1417 23.6953 12.6112 23.6953C12.0808 23.6953 11.5721 23.4846 11.197 23.1095C10.822 22.7345 10.6112 22.2257 10.6112 21.6953V21.6053C10.6035 21.2743 10.4964 20.9533 10.3038 20.684C10.1112 20.4147 9.84199 20.2096 9.53125 20.0953C9.22963 19.9622 8.89506 19.9225 8.57066 19.9813C8.24627 20.0401 7.94693 20.1948 7.71125 20.4253L7.65125 20.4853C7.4655 20.6713 7.24493 20.8188 7.00213 20.9194C6.75933 21.0201 6.49908 21.0719 6.23625 21.0719C5.97342 21.0719 5.71317 21.0201 5.47037 20.9194C5.22757 20.8188 5.007 20.6713 4.82125 20.4853C4.6353 20.2996 4.48778 20.079 4.38713 19.8362C4.28648 19.5934 4.23468 19.3331 4.23468 19.0703C4.23468 18.8075 4.28648 18.5472 4.38713 18.3044C4.48778 18.0616 4.6353 17.8411 4.82125 17.6553L4.88125 17.5953C5.11179 17.3596 5.26644 17.0603 5.32525 16.7359C5.38407 16.4115 5.34437 16.0769 5.21125 15.7753C5.08449 15.4795 4.87401 15.2273 4.60572 15.0496C4.33743 14.8719 4.02304 14.7766 3.70125 14.7753H3.53125C3.00082 14.7753 2.49211 14.5646 2.11704 14.1895C1.74196 13.8145 1.53125 13.3057 1.53125 12.7753C1.53125 12.2449 1.74196 11.7362 2.11704 11.3611C2.49211 10.986 3.00082 10.7753 3.53125 10.7753H3.62125C3.95224 10.7676 4.27325 10.6604 4.54255 10.4678C4.81184 10.2752 5.01697 10.006 5.13125 9.69531C5.26437 9.3937 5.30407 9.05912 5.24525 8.73472C5.18644 8.41033 5.03179 8.11099 4.80125 7.87531L4.74125 7.81531C4.5553 7.62957 4.40778 7.40899 4.30713 7.16619C4.20648 6.9234 4.15468 6.66314 4.15468 6.40031C4.15468 6.13748 4.20648 5.87723 4.30713 5.63443C4.40778 5.39164 4.5553 5.17106 4.74125 4.98531C4.927 4.79936 5.14757 4.65184 5.39037 4.55119C5.63317 4.45054 5.89342 4.39874 6.15625 4.39874C6.41908 4.39874 6.67933 4.45054 6.92213 4.55119C7.16493 4.65184 7.3855 4.79936 7.57125 4.98531L7.63125 5.04531C7.86693 5.27585 8.16627 5.4305 8.49066 5.48932C8.81506 5.54814 9.14963 5.50843 9.45125 5.37531H9.53125C9.82702 5.24855 10.0793 5.03807 10.2569 4.76978C10.4346 4.50149 10.53 4.1871 10.5312 3.86531V3.69531C10.5312 3.16488 10.742 2.65617 11.117 2.2811C11.4921 1.90603 12.0008 1.69531 12.5312 1.69531C13.0617 1.69531 13.5704 1.90603 13.9455 2.2811C14.3205 2.65617 14.5312 3.16488 14.5312 3.69531V3.78531C14.5325 4.1071 14.6279 4.42149 14.8056 4.68978C14.9832 4.95807 15.2355 5.16855 15.5312 5.29531C15.8329 5.42843 16.1674 5.46814 16.4918 5.40932C16.8162 5.3505 17.1156 5.19585 17.3512 4.96531L17.4112 4.90531C17.597 4.71936 17.8176 4.57184 18.0604 4.47119C18.3032 4.37054 18.5634 4.31874 18.8263 4.31874C19.0891 4.31874 19.3493 4.37054 19.5921 4.47119C19.8349 4.57184 20.0555 4.71936 20.2412 4.90531C20.4272 5.09106 20.5747 5.31164 20.6754 5.55443C20.776 5.79723 20.8278 6.05748 20.8278 6.32031C20.8278 6.58314 20.776 6.8434 20.6754 7.08619C20.5747 7.32899 20.4272 7.54957 20.2412 7.73531L20.1812 7.79531C19.9507 8.03099 19.7961 8.33033 19.7372 8.65472C19.6784 8.97912 19.7181 9.3137 19.8512 9.61531V9.69531C19.978 9.99108 20.1885 10.2433 20.4568 10.421C20.7251 10.5987 21.0395 10.694 21.3612 10.6953H21.5312C22.0617 10.6953 22.5704 10.906 22.9455 11.2811C23.3205 11.6562 23.5312 12.1649 23.5312 12.6953C23.5312 13.2257 23.3205 13.7345 22.9455 14.1095C22.5704 14.4846 22.0617 14.6953 21.5312 14.6953H21.4412C21.1195 14.6966 20.8051 14.7919 20.5368 14.9696C20.2685 15.1473 20.058 15.3995 19.9312 15.6953V15.6953Z" stroke="white" stroke-opacity="0.6" stroke-width="2" stroke-linecap="round" stroke-linejoin="round"/>
</g>
<defs>
<clipPath id="clip0_7706_63963">
<rect width="24" height="24" fill="white" transform="translate(0.53125 0.695312)"/>
</clipPath>
</defs>
</svg>
