<svg width="24" height="24" viewBox="0 0 24 24" fill="none" xmlns="http://www.w3.org/2000/svg">
<path d="M8 12.25C8.69036 12.25 9.25 11.6904 9.25 11C9.25 10.3096 8.69036 9.75 8 9.75C7.30964 9.75 6.75 10.3096 6.75 11C6.75 11.6904 7.30964 12.25 8 12.25Z" fill="white" fill-opacity="0.38"/>
<path d="M17 2.25H7C4.38 2.25 2.25 4.38 2.25 7V17C2.25 19.62 4.38 21.75 7 21.75H17C19.62 21.75 21.75 19.62 21.75 17V7C21.75 4.38 19.62 2.25 17 2.25ZM17.75 10C17.75 11.25 16.9 12.3 15.75 12.63V13.5C15.75 15.84 13.84 17.75 11.5 17.75C9.16 17.75 7.34 15.92 7.26 13.64C6.1 13.32 5.25 12.26 5.25 11C5.25 9.48 6.48 8.25 8 8.25C9.52 8.25 10.75 9.48 10.75 11C10.75 12.25 9.91 13.3 8.76 13.63C8.83 15.09 10.02 16.25 11.5 16.25C12.98 16.25 14.25 15.02 14.25 13.5V12.63C13.1 12.3 12.25 11.25 12.25 10V8C12.25 7.59 12.59 7.25 13 7.25C13.41 7.25 13.75 7.59 13.75 8V10C13.75 10.69 14.31 11.25 15 11.25C15.69 11.25 16.25 10.69 16.25 10V8C16.25 7.59 16.59 7.25 17 7.25C17.41 7.25 17.75 7.59 17.75 8V10Z" fill="white" fill-opacity="0.38"/>
</svg>
