<svg width="25" height="24" viewBox="0 0 25 24" fill="none" xmlns="http://www.w3.org/2000/svg">
<g clip-path="url(#clip0_6170_38747)">
<path opacity="0.988" fill-rule="evenodd" clip-rule="evenodd" d="M11.071 0.0236728C12.4956 -0.0880125 13.8862 0.07605 15.2428 0.51586C15.9919 0.858662 16.5154 1.41335 16.8131 2.17992C17.365 3.52963 17.4431 4.90463 17.0475 6.30492C16.8168 6.71944 16.5981 7.14131 16.3913 7.57055C16.14 7.95141 15.7885 8.0842 15.3366 7.96899C13.8871 7.38155 12.3871 7.19405 10.8366 7.40649C10.0419 7.55831 9.2606 7.75359 8.49284 7.99242C8.15201 8.00297 7.8942 7.86234 7.7194 7.57055C7.51259 7.14131 7.29387 6.71944 7.06315 6.30492C6.64212 4.81322 6.75152 3.36009 7.39127 1.94555C7.74354 1.19484 8.31387 0.687024 9.10221 0.42211C9.75593 0.243078 10.4122 0.110266 11.071 0.0236728Z" fill="white" fill-opacity="0.38"/>
<path opacity="0.983" fill-rule="evenodd" clip-rule="evenodd" d="M6.57418 6.44531C6.68086 6.53114 6.76678 6.6405 6.83199 6.77344C7.02314 7.17145 7.2263 7.56206 7.44136 7.94531C7.70293 8.27925 8.04671 8.45109 8.47261 8.46094C9.15403 8.29116 9.83372 8.11148 10.5117 7.92188C12.1851 7.62375 13.8101 7.79559 15.3867 8.4375C15.8883 8.529 16.3023 8.38059 16.6289 7.99219C16.9184 7.50703 17.184 7.00706 17.4257 6.49219C17.4594 6.44761 17.4984 6.43983 17.5429 6.46875C17.8415 6.82894 17.9587 7.24303 17.8945 7.71094C17.8364 8.25675 17.6099 8.71767 17.2148 9.09375C17.0531 9.19027 16.8812 9.26058 16.6992 9.30469C16.3322 10.7972 15.5978 12.0707 14.496 13.125C14.7998 13.8789 15.3623 14.2149 16.1835 14.1328C16.1835 14.6018 16.0663 15.0392 15.832 15.4453C14.8948 16.6938 13.637 17.3032 12.0586 17.2734C10.6279 17.2882 9.43261 16.7726 8.47261 15.7266C8.11964 15.2548 7.93997 14.7235 7.93355 14.1328C8.7413 14.2136 9.3038 13.8855 9.62105 13.1484C8.52638 12.0854 7.79199 10.8041 7.41793 9.30469C6.94725 9.18567 6.6113 8.90442 6.41011 8.46094C6.08738 7.75195 6.14203 7.08009 6.57418 6.44531Z" fill="white" fill-opacity="0.38"/>
<path opacity="0.957" fill-rule="evenodd" clip-rule="evenodd" d="M21.8516 13.8987C22.1825 13.8623 22.2997 14.003 22.2031 14.3205C21.9844 14.6643 21.7656 15.0081 21.5469 15.3518C21.5156 15.4455 21.5156 15.5393 21.5469 15.633C21.756 15.8818 21.9982 16.0849 22.2734 16.2424C22.6857 16.0128 23.0919 15.7706 23.4922 15.5158C23.5923 15.4861 23.686 15.5017 23.7734 15.5627C23.8276 16.5409 23.3745 17.1502 22.4141 17.3908C21.934 17.3421 21.4965 17.4515 21.1016 17.719C19.9375 18.883 18.7734 20.0471 17.6094 21.2112C17.4745 21.3775 17.3807 21.565 17.3281 21.7737C17.4205 22.8327 16.9752 23.5436 15.9922 23.9065C15.8203 23.9377 15.6485 23.9377 15.4766 23.9065C15.3854 23.8056 15.362 23.6884 15.4062 23.5549C15.6725 23.1785 15.9147 22.7878 16.1328 22.383C15.9265 22.075 15.6687 21.825 15.3594 21.633C14.9539 21.8194 14.5711 22.046 14.2109 22.3127C13.969 22.4183 13.8284 22.3402 13.7891 22.0783C13.8891 21.244 14.3423 20.7127 15.1484 20.4846C15.6393 20.5178 16.0924 20.4084 16.5078 20.1565C17.6875 18.9768 18.8672 17.7971 20.0469 16.6174C20.1497 16.4743 20.2279 16.318 20.2812 16.1487C20.1963 14.9553 20.7198 14.2053 21.8516 13.8987Z" fill="white" fill-opacity="0.38"/>
<path opacity="0.98" fill-rule="evenodd" clip-rule="evenodd" d="M5.77637 14.1326C6.07506 14.0984 6.30165 14.2078 6.45606 14.4607C6.67984 15.6315 6.8986 16.8034 7.11231 17.9763C7.44507 18.903 8.09354 19.4577 9.05762 19.6404C11.0576 19.6717 13.0576 19.6717 15.0576 19.6404C15.9308 19.4966 16.548 19.02 16.9092 18.2107C17.1893 16.9674 17.4393 15.7175 17.6592 14.4607C17.7814 14.2764 17.9533 14.167 18.1748 14.1326C18.8323 14.2856 19.4495 14.5356 20.0264 14.8826C19.9108 15.2313 19.8561 15.5907 19.8623 15.9607C19.8379 16.1189 19.7754 16.2595 19.6748 16.3826C18.542 17.5154 17.4092 18.6482 16.2764 19.781C16.1644 19.8683 16.0395 19.9307 15.9014 19.9685C14.4386 19.955 13.5792 20.666 13.3232 22.1013C13.4102 22.6371 13.7227 22.8637 14.2607 22.781C14.6169 22.5757 14.9685 22.3647 15.3154 22.1482C15.4388 22.2168 15.5403 22.3105 15.6201 22.4295C15.4092 22.7576 15.1982 23.0857 14.9873 23.4138C14.9119 23.5682 14.9041 23.7245 14.9639 23.8826C11.2609 23.9295 7.55776 23.9451 3.85449 23.9295C3.84668 21.0075 3.85449 18.0856 3.87793 15.1638C3.89629 15.0253 3.9666 14.9237 4.08887 14.8591C4.63491 14.5656 5.19741 14.3234 5.77637 14.1326Z" fill="white" fill-opacity="0.38"/>
<path opacity="0.966" fill-rule="evenodd" clip-rule="evenodd" d="M7.22656 14.1328C7.3047 14.1328 7.3828 14.1328 7.46094 14.1328C7.5267 15.1942 7.9798 16.0457 8.82031 16.6875C10.3814 17.7563 12.0689 18.0063 13.8828 17.4375C14.8914 17.0942 15.6805 16.477 16.25 15.5859C16.4925 15.1315 16.6253 14.6471 16.6484 14.1328C16.8505 14.16 17.0536 14.1757 17.2578 14.1797C17.0224 15.3804 16.7958 16.5835 16.5781 17.7891C16.3621 18.5207 15.8856 18.9816 15.1484 19.1719C13.0859 19.2031 11.0234 19.2031 8.96094 19.1719C8.29813 19.0092 7.83716 18.6107 7.57812 17.9766C7.33587 16.7104 7.09367 15.4448 6.85156 14.1797C6.9868 14.194 7.11181 14.1784 7.22656 14.1328Z" fill="white" fill-opacity="0.38"/>
<path opacity="0.975" fill-rule="evenodd" clip-rule="evenodd" d="M3.28912 15.6797C3.37568 17.2884 3.42256 18.9134 3.42974 20.5547C3.39662 21.6795 3.381 22.8045 3.38287 23.9297C2.89824 23.9375 2.41387 23.9297 1.92974 23.9062C0.829702 23.5739 0.282827 22.8317 0.289116 21.6797C0.393848 19.2202 1.39385 17.2202 3.28912 15.6797Z" fill="white" fill-opacity="0.38"/>
<path opacity="0.977" fill-rule="evenodd" clip-rule="evenodd" d="M22.6045 17.7892C22.6512 17.7852 22.6902 17.8008 22.7217 17.8361C23.5836 19.2524 23.9274 20.7837 23.7529 22.4298C23.5023 23.2116 22.9789 23.7038 22.1826 23.9064C21.6985 23.9298 21.2141 23.9376 20.7295 23.9298C20.7217 22.1797 20.7295 20.4298 20.7529 18.6798C21.0164 18.3692 21.3211 18.1114 21.667 17.9064C21.991 17.9034 22.3035 17.8643 22.6045 17.7892Z" fill="white" fill-opacity="0.38"/>
<path opacity="0.969" fill-rule="evenodd" clip-rule="evenodd" d="M20.1641 19.2422C20.2575 20.7883 20.2887 22.3508 20.2578 23.9297C19.1483 23.9375 18.0389 23.9297 16.9297 23.9063C17.5651 23.3452 17.8542 22.6343 17.7969 21.7734C17.8232 21.6691 17.87 21.5754 17.9375 21.4922C18.6891 20.7484 19.4313 19.9984 20.1641 19.2422Z" fill="white" fill-opacity="0.38"/>
</g>
<defs>
<clipPath id="clip0_6170_38747">
<rect width="24" height="24" fill="white" transform="translate(0.078125)"/>
</clipPath>
</defs>
</svg>
