<svg width="23" height="22" viewBox="0 0 23 22" fill="none" xmlns="http://www.w3.org/2000/svg">
<path d="M16.008 12.1111C14.9902 13.6469 13.8864 15.124 12.7018 16.5351C12.5728 16.6851 12.406 16.7978 12.2188 16.8617V21.6969L16.7662 20.0729L16.008 12.1111Z" fill="white" fill-opacity="0.38"/>
<path d="M10.9847 16.5331C9.80069 15.1227 8.6974 13.6464 7.68016 12.1113L6.92188 20.0729L11.4692 21.6969V16.8616C11.2813 16.7973 11.1141 16.6839 10.9847 16.5331Z" fill="white" fill-opacity="0.38"/>
<path d="M17.5225 20.1092L22.2175 21.7859C22.2797 21.808 22.3467 21.8133 22.4116 21.8013C22.4765 21.7892 22.5371 21.7603 22.5872 21.7173C22.6374 21.6744 22.6753 21.619 22.6972 21.5567C22.7191 21.4944 22.7242 21.4275 22.7119 21.3626L21.2119 13.4876C21.2003 13.4266 21.1738 13.3695 21.1347 13.3213C21.0956 13.2731 21.0451 13.2354 20.9878 13.2116L16.6953 11.4231L17.5225 20.1092Z" fill="white" fill-opacity="0.38"/>
<path d="M1.46976 21.7857L6.16476 20.1089L6.99201 11.4229L2.69935 13.2116C2.64204 13.2354 2.59156 13.2731 2.55244 13.3213C2.51332 13.3695 2.4868 13.4266 2.47525 13.4876L0.975247 21.3626C0.963017 21.4274 0.968114 21.4944 0.990026 21.5567C1.01194 21.6189 1.04989 21.6743 1.10005 21.7172C1.15021 21.7602 1.2108 21.7891 1.27571 21.8011C1.34062 21.8131 1.40756 21.8078 1.46976 21.7857Z" fill="white" fill-opacity="0.38"/>
<path d="M12.1298 16.0499C12.3634 15.7745 17.8438 9.26469 17.8438 6.05762C17.8438 4.46632 17.2116 2.9402 16.0864 1.81498C14.9612 0.689758 13.435 0.0576172 11.8438 0.0576172C10.2525 0.0576172 8.72633 0.689758 7.60111 1.81498C6.47589 2.9402 5.84375 4.46632 5.84375 6.05762C5.84375 9.26469 11.3241 15.7745 11.5577 16.0499C11.5929 16.0914 11.6367 16.1248 11.6861 16.1478C11.7355 16.1707 11.7893 16.1825 11.8438 16.1825C11.8982 16.1825 11.952 16.1707 12.0014 16.1478C12.0508 16.1248 12.0946 16.0914 12.1298 16.0499ZM9.21875 6.05762C9.21875 5.53844 9.3727 5.03092 9.66114 4.59925C9.94958 4.16757 10.3595 3.83111 10.8392 3.63243C11.3189 3.43375 11.8467 3.38177 12.3559 3.48306C12.8651 3.58434 13.3328 3.83435 13.6999 4.20146C14.067 4.56858 14.317 5.0363 14.4183 5.54551C14.5196 6.05471 14.4676 6.58251 14.2689 7.06216C14.0703 7.54182 13.7338 7.95179 13.3021 8.24023C12.8704 8.52866 12.3629 8.68262 11.8438 8.68262C11.1476 8.68262 10.4799 8.40606 9.98759 7.91377C9.49531 7.42149 9.21875 6.75381 9.21875 6.05762Z" fill="white" fill-opacity="0.38"/>
</svg>
