<svg width="21" height="20" viewBox="0 0 21 20" fill="none" xmlns="http://www.w3.org/2000/svg">
<path d="M13.2852 0.916656H4.95182C2.45182 0.916656 0.785156 2.16666 0.785156 5.08332V10.9167C0.785156 13.8333 2.45182 15.0833 4.95182 15.0833H13.2852C15.7852 15.0833 17.4518 13.8333 17.4518 10.9167V5.08332C17.4518 2.16666 15.7852 0.916656 13.2852 0.916656ZM13.6768 5.99166L11.0685 8.07499C10.5185 8.51666 9.81849 8.73332 9.11849 8.73332C8.41849 8.73332 7.71016 8.51666 7.16849 8.07499L4.56016 5.99166C4.29349 5.77499 4.25182 5.37499 4.46016 5.10832C4.67682 4.84166 5.06849 4.79166 5.33516 5.00832L7.94349 7.09166C8.57682 7.59999 9.65182 7.59999 10.2852 7.09166L12.8935 5.00832C13.1602 4.79166 13.5602 4.83332 13.7685 5.10832C13.9852 5.37499 13.9435 5.77499 13.6768 5.99166Z" fill="#253343"/>
</svg>
