<svg width="25" height="25" viewBox="0 0 25 25" fill="none" xmlns="http://www.w3.org/2000/svg">
<g clip-path="url(#clip0_5362_39843)">
<path opacity="0.984" fill-rule="evenodd" clip-rule="evenodd" d="M24.8203 3.31543C24.8203 3.47168 24.8203 3.62793 24.8203 3.78418C24.7355 3.9079 24.6262 4.00946 24.4922 4.08887C22.9766 4.11231 21.461 4.12012 19.9453 4.11231C19.9531 5.65927 19.9453 7.20615 19.9219 8.75293C19.8672 8.99513 19.7188 9.14354 19.4766 9.19824C15.039 9.22951 10.6016 9.22951 6.16406 9.19824C5.92186 9.14354 5.77345 8.99513 5.71875 8.75293C5.69531 7.20615 5.68748 5.65927 5.69531 4.11231C4.82031 4.11231 3.94531 4.11231 3.07031 4.11231C3.0625 5.75302 3.07031 7.39365 3.09375 9.03418C3.45091 9.34927 3.56029 9.73993 3.42188 10.2061C3.0084 10.9166 2.45371 11.0494 1.75781 10.6045C1.30838 10.0622 1.324 9.53879 1.80469 9.03418C1.85156 7.39384 1.86718 5.75321 1.85156 4.11231C1.61667 4.12008 1.38229 4.11227 1.14844 4.08887C1.01449 4.00946 0.905111 3.9079 0.820312 3.78418C0.820312 3.62793 0.820312 3.47168 0.820312 3.31543C0.909597 3.14049 1.05022 3.02331 1.24219 2.96387C8.96095 2.93262 16.6797 2.93262 24.3984 2.96387C24.5904 3.02331 24.731 3.14049 24.8203 3.31543Z" fill="#007BFF"/>
<path opacity="0.973" fill-rule="evenodd" clip-rule="evenodd" d="M8.27345 9.87794C13.2579 9.87011 18.2422 9.87794 23.2266 9.90137C23.6657 10.1921 23.7125 10.5359 23.3672 10.9326C23.1617 11.0361 22.9429 11.0752 22.7109 11.0498C22.7109 12.0029 22.7109 12.9561 22.7109 13.9092C23.1238 13.807 23.4129 13.9477 23.5781 14.3311C23.6266 14.6732 23.4937 14.9153 23.1797 15.0576C18.1783 15.1039 13.1783 15.0883 8.1797 15.0107C7.43912 14.7885 6.99381 14.2963 6.84376 13.5342C6.8125 12.8311 6.8125 12.1279 6.84376 11.4248C7.00703 10.6134 7.48356 10.0977 8.27345 9.87794ZM8.5547 11.0498C12.8828 11.0498 17.211 11.0498 21.5391 11.0498C21.5391 12.0029 21.5391 12.9561 21.5391 13.9092C17.1624 13.9321 12.7874 13.9086 8.41407 13.8389C8.19067 13.725 8.05782 13.5453 8.01564 13.2998C7.98437 12.7373 7.98437 12.1748 8.01564 11.6123C8.07882 11.307 8.2585 11.1195 8.5547 11.0498Z" fill="#007BFF"/>
<path opacity="0.991" fill-rule="evenodd" clip-rule="evenodd" d="M3.49215 15.7842C9.24217 15.7764 14.9922 15.7842 20.7422 15.8076C21.1013 15.9805 21.2185 16.2539 21.0937 16.6279C20.8846 16.929 20.5955 17.0384 20.2265 16.9561C20.2265 18.2061 20.2265 19.456 20.2265 20.7061C20.906 20.6122 21.1951 20.8934 21.0937 21.5498C21.0054 21.685 20.8882 21.7866 20.7422 21.8545C15.0234 21.8858 9.30465 21.8858 3.5859 21.8545C2.72807 21.7031 2.17338 21.2109 1.92184 20.3779C1.84795 19.4576 1.83233 18.5357 1.87496 17.6123C1.99338 16.6269 2.53245 16.0175 3.49215 15.7842Z" fill="#007BFF"/>
</g>
<defs>
<clipPath id="clip0_5362_39843">
<rect width="24" height="24" fill="white" transform="translate(0.84375 0.432617)"/>
</clipPath>
</defs>
</svg>
