<svg width="25" height="25" viewBox="0 0 25 25" fill="none" xmlns="http://www.w3.org/2000/svg">
<g clip-path="url(#clip0_6172_38809)">
<path opacity="0.984" fill-rule="evenodd" clip-rule="evenodd" d="M24.0547 3.38281C24.0547 3.53906 24.0547 3.69532 24.0547 3.85156C23.9699 3.97528 23.8605 4.07684 23.7266 4.15625C22.211 4.17969 20.6954 4.1875 19.1797 4.17969C19.1875 5.72666 19.1797 7.27353 19.1562 8.82031C19.1015 9.06252 18.9531 9.21092 18.7109 9.26563C14.2734 9.29689 9.83595 9.29689 5.39844 9.26563C5.15623 9.21092 5.00783 9.06252 4.95312 8.82031C4.92969 7.27353 4.92186 5.72666 4.92969 4.17969C4.05469 4.17969 3.17969 4.17969 2.30469 4.17969C2.29687 5.82041 2.30469 7.46103 2.32812 9.10156C2.68528 9.41666 2.79466 9.80731 2.65625 10.2734C2.24277 10.984 1.68808 11.1168 0.992188 10.6719C0.542752 10.1296 0.558378 9.60617 1.03906 9.10156C1.08593 7.46122 1.10156 5.8206 1.08594 4.17969C0.851042 4.18747 0.616667 4.17966 0.382812 4.15625C0.248862 4.07684 0.139486 3.97528 0.0546875 3.85156C0.0546875 3.69532 0.0546875 3.53906 0.0546875 3.38281C0.143972 3.20788 0.284597 3.09069 0.476562 3.03125C8.19533 3 15.914 3 23.6328 3.03125C23.8248 3.09069 23.9654 3.20788 24.0547 3.38281Z" fill="white" fill-opacity="0.38"/>
<path opacity="0.973" fill-rule="evenodd" clip-rule="evenodd" d="M7.50782 9.94532C12.4922 9.93749 17.4766 9.94532 22.4609 9.96876C22.9 10.2595 22.9469 10.6033 22.6016 11C22.3961 11.1035 22.1773 11.1426 21.9453 11.1172C21.9453 12.0703 21.9453 13.0235 21.9453 13.9766C22.3582 13.8744 22.6472 14.0151 22.8125 14.3984C22.8609 14.7405 22.7281 14.9827 22.4141 15.125C17.4127 15.1713 12.4127 15.1557 7.41407 15.0781C6.6735 14.8559 6.22818 14.3637 6.07814 13.6016C6.04687 12.8984 6.04687 12.1953 6.07814 11.4922C6.2414 10.6807 6.71793 10.1651 7.50782 9.94532ZM7.78907 11.1172C12.1172 11.1172 16.4453 11.1172 20.7734 11.1172C20.7734 12.0703 20.7734 13.0235 20.7734 13.9766C16.3968 13.9994 12.0217 13.976 7.64845 13.9063C7.42504 13.7924 7.2922 13.6127 7.25001 13.3672C7.21875 12.8047 7.21875 12.2422 7.25001 11.6797C7.3132 11.3744 7.49287 11.1869 7.78907 11.1172Z" fill="white" fill-opacity="0.38"/>
<path opacity="0.991" fill-rule="evenodd" clip-rule="evenodd" d="M2.72653 15.8516C8.47654 15.8437 14.2266 15.8516 19.9765 15.875C20.3357 16.0479 20.4529 16.3213 20.3281 16.6953C20.1189 16.9964 19.8299 17.1058 19.4609 17.0234C19.4609 18.2735 19.4609 19.5234 19.4609 20.7734C20.1404 20.6796 20.4294 20.9608 20.3281 21.6172C20.2398 21.7524 20.1226 21.854 19.9765 21.9219C14.2578 21.9531 8.53903 21.9531 2.82028 21.9219C1.96245 21.7705 1.40776 21.2783 1.15621 20.4453C1.08233 19.525 1.0667 18.6031 1.10934 17.6797C1.22776 16.6943 1.76682 16.0849 2.72653 15.8516Z" fill="white" fill-opacity="0.38"/>
</g>
<defs>
<clipPath id="clip0_6172_38809">
<rect width="24" height="24" fill="white" transform="translate(0.078125 0.5)"/>
</clipPath>
</defs>
</svg>
