<svg width="17" height="16" viewBox="0 0 17 16" fill="none" xmlns="http://www.w3.org/2000/svg">
<path d="M16.6804 8.17753C16.6804 7.51976 16.626 7.03976 16.5081 6.54199H8.84375V9.51084H13.3426C13.2519 10.2486 12.7621 11.3597 11.6736 12.1064L11.6584 12.2058L14.0817 14.0455L14.2496 14.062C15.7915 12.6664 16.6804 10.6131 16.6804 8.17753Z" fill="#4285F4"/>
<path d="M8.83936 16.0001C11.0434 16.0001 12.8937 15.2889 14.2452 14.0623L11.6692 12.1067C10.9799 12.5778 10.0547 12.9067 8.83936 12.9067C6.68066 12.9067 4.84849 11.5112 4.19537 9.58228L4.09963 9.59024L1.57983 11.5014L1.54688 11.5911C2.88925 14.2045 5.64661 16.0001 8.83936 16.0001Z" fill="#576DD6"/>
<path d="M4.19891 9.58214C4.02658 9.08437 3.92684 8.551 3.92684 7.99992C3.92684 7.44877 4.02658 6.91546 4.18984 6.41769L4.18528 6.31168L1.63389 4.36987L1.55041 4.40879C0.99715 5.49324 0.679688 6.71104 0.679688 7.99992C0.679688 9.2888 0.99715 10.5065 1.55041 11.591L4.19891 9.58214Z" fill="#FBBC05"/>
<path d="M8.8394 3.0933C10.3723 3.0933 11.4062 3.74218 11.9958 4.28444L14.2997 2.07999C12.8848 0.791111 11.0434 0 8.8394 0C5.64663 0 2.88926 1.79553 1.54688 4.40884L4.18632 6.41775C4.8485 4.48887 6.68069 3.0933 8.8394 3.0933Z" fill="#EB4335"/>
</svg>
