<svg width="32" height="32" viewBox="0 0 32 32" fill="none" xmlns="http://www.w3.org/2000/svg">
<g clip-path="url(#clip0_5367_35676)">
<path opacity="0.939" fill-rule="evenodd" clip-rule="evenodd" d="M15.7813 3.26465C15.9063 3.26465 16.0312 3.26465 16.1563 3.26465C16.214 3.32173 16.2687 3.38423 16.3203 3.45215C16.3516 4.43652 16.3516 5.4209 16.3203 6.40527C16.1419 6.64224 15.931 6.6813 15.6875 6.52246C15.6305 6.44523 15.5914 6.35929 15.5703 6.26465C15.5391 5.37402 15.5391 4.4834 15.5703 3.59277C15.5952 3.44816 15.6655 3.33879 15.7813 3.26465Z" fill="#007BFF"/>
<path opacity="0.912" fill-rule="evenodd" clip-rule="evenodd" d="M9.96879 4.95217C10.1528 4.93091 10.3012 4.99341 10.4141 5.13967C10.8672 5.84279 11.3203 6.54591 11.7735 7.24904C11.9352 7.61314 11.8258 7.83189 11.4454 7.90529C11.3134 7.90962 11.2041 7.86275 11.1172 7.76466C10.7383 7.14734 10.3477 6.53796 9.94535 5.93654C9.81434 5.76051 9.72842 5.5652 9.68754 5.3506C9.68524 5.14302 9.77899 5.01021 9.96879 4.95217Z" fill="#007BFF"/>
<path opacity="0.914" fill-rule="evenodd" clip-rule="evenodd" d="M21.8737 5.09282C22.4013 5.08549 22.5497 5.31987 22.319 5.79594C21.8815 6.45219 21.444 7.10844 21.0065 7.76469C20.8399 7.99677 20.6289 8.05147 20.3737 7.92876C20.2155 7.75242 20.192 7.55711 20.3034 7.34282C20.8036 6.57037 21.3271 5.82037 21.8737 5.09282Z" fill="#007BFF"/>
<path opacity="0.962" fill-rule="evenodd" clip-rule="evenodd" d="M15.8758 8.37402C18.6247 8.48545 20.57 9.78234 21.7117 12.2646C22.6357 15.0232 22.0419 17.3982 19.9305 19.3896C19.5737 19.913 19.3549 20.4911 19.2742 21.124C19.2259 21.5759 19.1946 22.029 19.1805 22.4834C19.123 22.5877 19.037 22.6581 18.9227 22.6943C16.9187 22.7407 14.9188 22.725 12.9227 22.6475C12.8295 22.5856 12.7748 22.4997 12.7586 22.3896C12.7719 21.6211 12.6626 20.8711 12.4305 20.1396C12.3174 19.8978 12.1924 19.6634 12.0555 19.4365C9.85748 17.3944 9.26376 14.9569 10.2742 12.124C11.4143 9.79199 13.2815 8.54198 15.8758 8.37402Z" fill="#007BFF"/>
<path opacity="0.918" fill-rule="evenodd" clip-rule="evenodd" d="M6.2199 8.93648C6.29955 8.92898 6.37768 8.93676 6.45428 8.95991C7.22733 9.35423 7.99296 9.76049 8.75115 10.1787C8.96936 10.3145 9.03967 10.5097 8.96209 10.7646C8.80703 10.944 8.61173 10.9987 8.37615 10.9287C7.5681 10.513 6.77903 10.0677 6.00897 9.59273C5.87839 9.30744 5.9487 9.08868 6.2199 8.93648Z" fill="#007BFF"/>
<path opacity="0.918" fill-rule="evenodd" clip-rule="evenodd" d="M25.3906 8.98336C25.8177 8.90288 26.013 9.07477 25.9766 9.49899C25.924 9.59855 25.8537 9.68447 25.7656 9.7568C25.0312 10.1474 24.2969 10.5381 23.5625 10.9287C23.2169 11.0684 22.9982 10.959 22.9062 10.6005C22.9253 10.4405 23.0034 10.3155 23.1406 10.2255C23.9011 9.82205 24.6511 9.408 25.3906 8.98336Z" fill="#007BFF"/>
<path fill-rule="evenodd" clip-rule="evenodd" d="M18.4552 21.5459C18.4096 21.6607 18.394 21.7857 18.4083 21.9209C16.7833 21.9209 15.1584 21.9209 13.5333 21.9209C13.5184 20.8528 13.2294 19.8684 12.6662 18.9678C12.2507 18.5499 11.86 18.1124 11.4943 17.6553C10.493 16.0606 10.3055 14.3731 10.9318 12.5928C12.0613 10.1843 13.9597 9.06707 16.6271 9.24125C19.2492 9.7071 20.8195 11.2461 21.338 13.8584C21.5275 15.7754 20.9181 17.3848 19.5099 18.6866C18.83 19.5151 18.4784 20.4682 18.4552 21.5459Z" fill="#007BFF"/>
<path fill-rule="evenodd" clip-rule="evenodd" d="M18.4531 21.5459C18.4531 21.6865 18.4531 21.8271 18.4531 21.9678C16.8045 21.9833 15.1639 21.9677 13.5312 21.9209C15.1563 21.9209 16.7812 21.9209 18.4062 21.9209C18.3919 21.7857 18.4075 21.6606 18.4531 21.5459Z" fill="#007BFF"/>
<path opacity="0.965" fill-rule="evenodd" clip-rule="evenodd" d="M13.25 23.1865C15.0782 23.1787 16.9063 23.1865 18.7344 23.21C19.3691 23.5218 19.5332 23.9984 19.2266 24.6397C19.0713 24.8618 18.8603 24.9946 18.5938 25.0381C16.8438 25.0694 15.0937 25.0694 13.3438 25.0381C12.8702 24.916 12.6046 24.6113 12.5469 24.124C12.5789 23.6514 12.8133 23.339 13.25 23.1865Z" fill="#007BFF"/>
<path fill-rule="evenodd" clip-rule="evenodd" d="M13.4338 23.9365C15.1214 23.9287 16.8089 23.9365 18.4963 23.96C18.6056 24.0631 18.6056 24.1568 18.4963 24.2412C16.8088 24.2725 15.1213 24.2725 13.4338 24.2412C13.3137 24.1402 13.3137 24.0386 13.4338 23.9365Z" fill="#007BFF"/>
<path opacity="0.965" fill-rule="evenodd" clip-rule="evenodd" d="M17.9833 27.2647C16.6395 27.2647 15.2958 27.2647 13.9521 27.2647C13.321 26.9452 13.157 26.4608 13.4599 25.8115C13.6267 25.5758 13.8533 25.443 14.1396 25.4131C15.3583 25.3818 16.5771 25.3818 17.7958 25.4131C18.4146 25.5477 18.688 25.9305 18.6161 26.5615C18.5088 26.8951 18.2978 27.1295 17.9833 27.2647Z" fill="#007BFF"/>
<path fill-rule="evenodd" clip-rule="evenodd" d="M14.1856 26.1865C15.3889 26.1787 16.592 26.1865 17.795 26.21C17.8575 26.3037 17.8575 26.3975 17.795 26.4912C16.5919 26.5225 15.3888 26.5225 14.1856 26.4912C14.0631 26.3861 14.0631 26.2845 14.1856 26.1865Z" fill="#007BFF"/>
</g>
<circle cx="16" cy="16" r="15.5" stroke="#007BFF"/>
<defs>
<clipPath id="clip0_5367_35676">
<rect width="24" height="24" fill="white" transform="translate(3.99219 3.28809)"/>
</clipPath>
</defs>
</svg>
