<svg width="33" height="32" viewBox="0 0 33 32" fill="none" xmlns="http://www.w3.org/2000/svg">
<g clip-path="url(#clip0_7700_63858)">
<path opacity="0.933" fill-rule="evenodd" clip-rule="evenodd" d="M16.1094 3.97656C16.2344 3.97656 16.3594 3.97656 16.4844 3.97656C16.5293 4.04507 16.5839 4.10757 16.6484 4.16406C16.6797 5.14844 16.6797 6.13281 16.6484 7.11719C16.4684 7.34009 16.2574 7.37916 16.0156 7.23438C15.9586 7.15714 15.9195 7.0712 15.8984 6.97656C15.8672 6.08594 15.8672 5.19531 15.8984 4.30469C15.924 4.16281 15.9943 4.05343 16.1094 3.97656Z" fill="#007BFF"/>
<path opacity="0.918" fill-rule="evenodd" clip-rule="evenodd" d="M10.2993 5.66434C10.5078 5.64754 10.6719 5.72567 10.7914 5.89871C11.2289 6.58622 11.6665 7.27371 12.1039 7.96121C12.2608 8.46051 12.0812 8.67145 11.5649 8.59403C11.0553 7.86391 10.5631 7.12173 10.0883 6.36746C9.94413 6.05577 10.0144 5.8214 10.2993 5.66434Z" fill="#007BFF"/>
<path opacity="0.912" fill-rule="evenodd" clip-rule="evenodd" d="M22.2041 5.80516C22.6748 5.76769 22.8389 5.97082 22.6963 6.41453C22.1911 7.18525 21.6677 7.94306 21.126 8.68797C20.6303 8.73897 20.4663 8.52805 20.6338 8.05516C21.1341 7.28271 21.6575 6.53271 22.2041 5.80516Z" fill="#007BFF"/>
<path opacity="0.929" fill-rule="evenodd" clip-rule="evenodd" d="M15.6886 9.13269C18.6376 9.03041 20.7547 10.296 22.0401 12.9296C23.0072 15.7474 22.3978 18.1693 20.212 20.1952C19.8888 20.7114 19.6857 21.2739 19.6026 21.8827C19.555 22.319 19.5237 22.7564 19.5089 23.1952C19.4698 23.328 19.3839 23.414 19.2511 23.453C17.2483 23.4991 15.2483 23.4835 13.2511 23.4061C13.1579 23.3443 13.1032 23.2584 13.087 23.1483C13.1545 22.1106 12.9358 21.1419 12.4308 20.2421C12.0714 19.8515 11.712 19.4608 11.3526 19.0702C9.72114 16.6098 9.70553 14.141 11.3058 11.6639C12.4265 10.2324 13.8875 9.38867 15.6886 9.13269ZM15.6417 9.92956C17.838 9.7662 19.5645 10.5787 20.8214 12.3671C21.9615 14.2956 21.9771 16.2331 20.8683 18.1796C20.5321 18.6802 20.1415 19.1333 19.6964 19.5389C19.0582 20.4654 18.7379 21.4967 18.7354 22.6327C17.1104 22.6327 15.4855 22.6327 13.8604 22.6327C13.8678 21.5667 13.5944 20.5823 13.0401 19.6796C12.6807 19.289 12.3214 18.8983 11.962 18.5077C10.6095 16.461 10.5626 14.3829 11.8214 12.2733C12.7669 10.9606 14.0403 10.1793 15.6417 9.92956Z" fill="#007BFF"/>
<path opacity="0.914" fill-rule="evenodd" clip-rule="evenodd" d="M6.49913 9.69535C6.66043 9.68602 6.81668 9.70946 6.96788 9.76566C7.67478 10.1751 8.39353 10.5657 9.12413 10.9375C9.31965 11.1182 9.35869 11.3291 9.24132 11.5704C9.11354 11.6859 8.96509 11.7249 8.796 11.6875C8.01475 11.2657 7.23351 10.8438 6.45225 10.4219C6.19912 10.1636 6.21474 9.92148 6.49913 9.69535Z" fill="#007BFF"/>
<path opacity="0.914" fill-rule="evenodd" clip-rule="evenodd" d="M25.7688 9.69517C26.1007 9.6339 26.2882 9.7667 26.3313 10.0936C26.3175 10.2306 26.255 10.34 26.1438 10.4217C25.3626 10.8436 24.5813 11.2655 23.8001 11.6874C23.394 11.7342 23.2299 11.5546 23.3079 11.1483C23.3447 11.0646 23.3993 10.9943 23.472 10.9374C24.2405 10.522 25.0061 10.1079 25.7688 9.69517Z" fill="#007BFF"/>
<path opacity="0.926" fill-rule="evenodd" clip-rule="evenodd" d="M16.1091 10.7266C18.4896 10.7484 20.0912 11.8734 20.9138 14.1016C21.0738 14.6424 21.1207 15.1893 21.0545 15.7422C20.8505 15.965 20.6317 15.9807 20.3982 15.7891C20.1557 13.1091 18.6948 11.6482 16.0154 11.4062C15.8328 11.1496 15.864 10.9231 16.1091 10.7266Z" fill="#007BFF"/>
<path opacity="0.942" fill-rule="evenodd" clip-rule="evenodd" d="M13.5797 23.8516C15.3766 23.8437 17.1735 23.8516 18.9703 23.875C19.6299 24.1242 19.8409 24.5852 19.6031 25.2578C19.4152 25.559 19.1417 25.7231 18.7828 25.75C17.1109 25.7813 15.4391 25.7813 13.7672 25.75C13.0348 25.5904 12.7614 25.145 12.9469 24.4141C13.0804 24.1335 13.2914 23.946 13.5797 23.8516ZM13.8609 24.6016C15.486 24.5937 17.111 24.6016 18.7359 24.625C18.8753 24.6824 18.9065 24.7761 18.8297 24.9063C17.1422 24.9375 15.4547 24.9375 13.7672 24.9063C13.6331 24.7537 13.6644 24.6521 13.8609 24.6016Z" fill="#007BFF"/>
<path opacity="0.962" fill-rule="evenodd" clip-rule="evenodd" d="M18.3099 27.9766C16.9661 27.9766 15.6224 27.9766 14.2786 27.9766C13.6146 27.6486 13.4506 27.1486 13.7864 26.4766C13.9134 26.3076 14.0774 26.1904 14.2786 26.125C15.6224 26.0937 16.9661 26.0937 18.3099 26.125C18.9674 26.4501 19.1315 26.9423 18.802 27.6016C18.6682 27.7755 18.5042 27.9005 18.3099 27.9766ZM14.513 26.8516C15.6849 26.8437 16.8568 26.8516 18.0286 26.875C18.1923 26.9443 18.2079 27.038 18.0755 27.1563C16.888 27.1875 15.7005 27.1875 14.513 27.1563C14.398 27.0588 14.398 26.9572 14.513 26.8516Z" fill="#007BFF"/>
</g>
<circle cx="16.3203" cy="16" r="15.5" stroke="#007BFF"/>
<defs>
<clipPath id="clip0_7700_63858">
<rect width="24" height="24" fill="white" transform="translate(4.32031 4)"/>
</clipPath>
</defs>
</svg>
