<svg width="25" height="25" viewBox="0 0 25 25" fill="none" xmlns="http://www.w3.org/2000/svg">
<g clip-path="url(#clip0_7693_61609)">
<path opacity="0.97" fill-rule="evenodd" clip-rule="evenodd" d="M12.3672 0.90918C12.4922 0.90918 12.6172 0.90918 12.7422 0.90918C12.7979 0.949662 12.8526 0.996537 12.9063 1.0498C13.1365 1.52591 13.3787 1.99466 13.6328 2.45605C14.1482 2.53975 14.6638 2.62568 15.1797 2.71387C15.2813 2.75293 15.3516 2.82324 15.3906 2.9248C15.4289 3.08719 15.4133 3.24344 15.3438 3.39355C14.9702 3.72021 14.6108 4.06396 14.2656 4.4248C14.3093 4.84682 14.3718 5.2687 14.4531 5.69043C14.5849 6.08005 14.4599 6.33004 14.0781 6.44043C13.5544 6.22157 13.0467 5.97154 12.5547 5.69043C12.0627 5.97154 11.5549 6.22157 11.0313 6.44043C10.7577 6.38605 10.6249 6.22199 10.6328 5.94824C10.7062 5.43828 10.7765 4.93047 10.8438 4.4248C10.4662 4.04727 10.0912 3.67227 9.71876 3.2998C9.6875 3.15918 9.6875 3.01855 9.71876 2.87793C9.77567 2.80533 9.84598 2.75064 9.9297 2.71387C10.4638 2.62869 10.995 2.53494 11.5234 2.43262C11.7432 1.96952 11.9698 1.50858 12.2031 1.0498C12.2568 0.996537 12.3115 0.949662 12.3672 0.90918Z" fill="white" fill-opacity="0.38"/>
<path opacity="0.941" fill-rule="evenodd" clip-rule="evenodd" d="M7.54229 3.72168C7.80067 3.77667 7.97251 3.93292 8.05792 4.19043C8.72757 4.30172 8.84476 4.61422 8.40948 5.12793C8.50238 5.85557 8.21331 6.07429 7.54229 5.78418C6.93451 6.06623 6.66887 5.87873 6.74542 5.22168C6.23434 4.68123 6.34374 4.33748 7.07354 4.19043C7.12824 4.08106 7.1829 3.97168 7.2376 3.8623C7.33913 3.80458 7.44071 3.7577 7.54229 3.72168Z" fill="white" fill-opacity="0.38"/>
<path opacity="0.941" fill-rule="evenodd" clip-rule="evenodd" d="M17.5228 3.72168C17.6334 3.75337 17.7428 3.79243 17.851 3.83887C17.9194 3.95233 17.9819 4.06952 18.0385 4.19043C18.7683 4.33748 18.8777 4.68123 18.3666 5.22168C18.4431 5.87873 18.1775 6.06623 17.5697 5.78418C16.8931 6.06805 16.604 5.84934 16.7025 5.12793C16.2672 4.61422 16.3844 4.30172 17.0541 4.19043C17.1374 3.9508 17.2937 3.79456 17.5228 3.72168Z" fill="white" fill-opacity="0.38"/>
<path opacity="0.936" fill-rule="evenodd" clip-rule="evenodd" d="M3.92821 5.73726C4.26252 5.72737 4.48127 5.8836 4.58446 6.20601C5.06418 6.22363 5.24386 6.45801 5.12352 6.90913C5.0454 6.98727 4.96728 7.06537 4.88915 7.14351C4.877 7.26027 4.88481 7.37746 4.91259 7.49507C4.89178 7.76587 4.74334 7.91432 4.46727 7.94038C4.31488 7.90321 4.17426 7.84073 4.0454 7.75288C3.81573 7.95004 3.57354 7.97348 3.31884 7.8232C3.1771 7.6153 3.13804 7.38871 3.20165 7.14351C2.9422 6.94345 2.8797 6.69341 3.01415 6.39351C3.1804 6.29427 3.36008 6.22396 3.55321 6.18257C3.61936 5.97721 3.74436 5.8288 3.92821 5.73726Z" fill="white" fill-opacity="0.38"/>
<path opacity="0.936" fill-rule="evenodd" clip-rule="evenodd" d="M20.8989 5.7373C21.2376 5.7112 21.4563 5.8596 21.5551 6.18262C21.7091 6.23535 21.8653 6.28223 22.0239 6.32324C22.2365 6.62999 22.1974 6.90346 21.9067 7.14355C21.9766 7.38759 21.9375 7.61413 21.7895 7.82324C21.5348 7.97352 21.2926 7.95009 21.063 7.75293C20.7401 8.03099 20.4588 7.99973 20.2192 7.65918C20.2062 7.48602 20.2062 7.31413 20.2192 7.14355C19.8307 6.85321 19.8229 6.56413 20.1958 6.27637C20.3078 6.26291 20.4172 6.23948 20.5239 6.20605C20.6278 6.02755 20.7528 5.87132 20.8989 5.7373Z" fill="white" fill-opacity="0.38"/>
<path opacity="0.99" fill-rule="evenodd" clip-rule="evenodd" d="M17.4792 24.9092C16.6355 24.9092 15.7917 24.9092 14.948 24.9092C14.8285 24.8128 14.7582 24.6878 14.737 24.5342C14.7214 22.9561 14.7058 21.378 14.6902 19.7998C14.6382 19.6913 14.5522 19.621 14.4323 19.5889C13.1823 19.5576 11.9324 19.5576 10.6823 19.5889C10.5625 19.621 10.4765 19.6913 10.4245 19.7998C10.4089 21.378 10.3933 22.9561 10.3777 24.5342C10.3565 24.6878 10.2862 24.8128 10.1667 24.9092C9.32297 24.9092 8.47922 24.9092 7.63547 24.9092C7.57285 24.8384 7.51814 24.7603 7.47141 24.6748C7.42491 19.4697 7.44056 14.2666 7.51828 9.06544C7.7407 8.48921 8.1548 8.13764 8.76047 8.01075C11.2917 7.97949 13.823 7.97949 16.3542 8.01075C16.9599 8.13764 17.374 8.48921 17.5964 9.06544C17.6741 14.2666 17.6898 19.4697 17.6433 24.6748C17.5965 24.7603 17.5418 24.8384 17.4792 24.9092ZM10.2136 12.0654C11.7762 12.0576 13.3387 12.0654 14.9011 12.0889C15.1988 12.1921 15.2848 12.3874 15.1589 12.6748C15.1166 12.7311 15.0619 12.7702 14.9948 12.792C13.3698 12.8233 11.7449 12.8233 10.1198 12.792C9.88856 12.6671 9.83386 12.4874 9.95578 12.2529C10.0261 12.1606 10.112 12.0982 10.2136 12.0654ZM10.9636 15.9092C12.0262 15.9014 13.0887 15.9092 14.1511 15.9326C14.4824 16.0092 14.5839 16.2045 14.4558 16.5186C14.394 16.6117 14.308 16.6664 14.198 16.6826C13.1042 16.7139 12.0105 16.7139 10.9167 16.6826C10.619 16.5795 10.533 16.3841 10.6589 16.0967C10.7429 15.9969 10.8444 15.9345 10.9636 15.9092Z" fill="white" fill-opacity="0.38"/>
<path opacity="0.976" fill-rule="evenodd" clip-rule="evenodd" d="M6.46094 24.9092C5.5547 24.9092 4.64844 24.9092 3.74219 24.9092C3.07265 24.7003 2.67422 24.2471 2.54688 23.5498C2.51562 20.7217 2.51562 17.8936 2.54688 15.0654C2.67045 14.3482 3.08451 13.9028 3.78906 13.7295C4.67969 13.6982 5.57031 13.6982 6.46094 13.7295C6.56922 13.8062 6.63953 13.9078 6.67188 14.0342C6.70314 17.5654 6.70314 21.0967 6.67188 24.6279C6.63419 24.752 6.56388 24.8457 6.46094 24.9092ZM4.86719 17.3154C5.01057 17.3294 5.12776 17.3918 5.21875 17.5029C5.27102 17.851 5.29445 18.2026 5.28906 18.5576C5.28124 18.8623 5.27345 19.167 5.26563 19.4717C5.07879 19.8516 4.84442 19.8828 4.5625 19.5654C4.53125 18.8936 4.53125 18.2217 4.5625 17.5498C4.64711 17.4408 4.74867 17.3627 4.86719 17.3154Z" fill="white" fill-opacity="0.38"/>
<path opacity="0.976" fill-rule="evenodd" clip-rule="evenodd" d="M21.3672 24.9092C20.461 24.9092 19.5547 24.9092 18.6484 24.9092C18.5455 24.8457 18.4752 24.752 18.4375 24.6279C18.4062 21.0967 18.4062 17.5654 18.4375 14.0342C18.4699 13.9078 18.5402 13.8062 18.6484 13.7295C19.5391 13.6982 20.4297 13.6982 21.3203 13.7295C22.0249 13.9028 22.4389 14.3482 22.5625 15.0654C22.5938 17.8936 22.5938 20.7217 22.5625 23.5498C22.4352 24.2471 22.0367 24.7003 21.3672 24.9092ZM20.1484 17.3154C20.3189 17.3281 20.4517 17.4062 20.5469 17.5498C20.5782 18.2217 20.5782 18.8936 20.5469 19.5654C20.2916 19.8763 20.0572 19.8607 19.8438 19.5186C19.8125 18.8936 19.8125 18.2686 19.8438 17.6436C19.8915 17.4788 19.9931 17.3694 20.1484 17.3154Z" fill="white" fill-opacity="0.38"/>
<path opacity="0.985" fill-rule="evenodd" clip-rule="evenodd" d="M13.7734 24.9092C12.961 24.9092 12.1484 24.9092 11.3359 24.9092C11.291 24.8407 11.2364 24.7782 11.1719 24.7217C11.1406 23.3311 11.1406 21.9405 11.1719 20.5498C11.2545 20.4201 11.3717 20.3498 11.5234 20.3389C12.211 20.3076 12.8984 20.3076 13.5859 20.3389C13.7377 20.3498 13.8549 20.4201 13.9375 20.5498C13.9688 21.9405 13.9688 23.3311 13.9375 24.7217C13.873 24.7782 13.8184 24.8407 13.7734 24.9092Z" fill="white" fill-opacity="0.38"/>
</g>
<defs>
<clipPath id="clip0_7693_61609">
<rect width="24" height="24" fill="white" transform="translate(0.578125 0.932617)"/>
</clipPath>
</defs>
</svg>
