<svg width="25" height="25" viewBox="0 0 25 25" fill="none" xmlns="http://www.w3.org/2000/svg">
<g clip-path="url(#clip0_6495_37858)">
<path opacity="0.966" fill-rule="evenodd" clip-rule="evenodd" d="M2.53125 4.76416C8.99998 4.75635 15.4687 4.76416 21.9375 4.7876C22.9609 4.99854 23.5781 5.61574 23.789 6.63916C23.8203 10.4516 23.8203 14.2642 23.789 18.0767C23.5937 19.147 22.9609 19.7798 21.8906 19.9751C15.4531 20.0064 9.01559 20.0064 2.57812 19.9751C1.50753 19.7795 0.87472 19.1467 0.679688 18.0767C0.648437 14.2798 0.648437 10.4829 0.679688 6.68604C0.878217 5.63604 1.4954 4.99541 2.53125 4.76416ZM2.71875 6.07666C9.06251 6.06883 15.4062 6.07666 21.75 6.1001C22.1032 6.20332 22.3297 6.42986 22.4296 6.77979C22.4609 10.4985 22.4609 14.2173 22.4296 17.936C22.3264 18.2892 22.0999 18.5158 21.75 18.6157C15.4062 18.647 9.06247 18.647 2.71875 18.6157C2.36554 18.5125 2.13898 18.286 2.03906 17.936C2.00781 14.2173 2.00781 10.4985 2.03906 6.77979C2.14926 6.42747 2.37582 6.1931 2.71875 6.07666Z" fill="white" fill-opacity="0.87"/>
<path opacity="0.966" fill-rule="evenodd" clip-rule="evenodd" d="M7.45475 8.37354C8.00206 8.36571 8.54917 8.37354 9.09605 8.39698C9.139 8.41451 9.17811 8.43795 9.21328 8.46729C9.28953 9.0409 9.30515 9.61906 9.26018 10.2017C9.20545 10.2564 9.15077 10.311 9.09605 10.3657C8.5646 10.397 8.0331 10.397 7.50165 10.3657C7.43454 10.3439 7.37986 10.3048 7.33752 10.2485C7.26132 9.69054 7.2457 9.12804 7.29063 8.56104C7.35515 8.50456 7.40983 8.44207 7.45475 8.37354Z" fill="white" fill-opacity="0.87"/>
<path opacity="0.966" fill-rule="evenodd" clip-rule="evenodd" d="M11.4376 8.37354C11.9849 8.36571 12.532 8.37354 13.0789 8.39698C13.1336 8.45168 13.1883 8.50634 13.243 8.56104C13.2743 9.09228 13.2743 9.62356 13.243 10.1548C13.2212 10.2219 13.1821 10.2765 13.1258 10.3189C12.5675 10.395 12.0048 10.4106 11.4376 10.3657C11.3829 10.311 11.3282 10.2564 11.2735 10.2017C11.2422 9.65478 11.2422 9.10793 11.2735 8.56104C11.3058 8.47432 11.3605 8.41179 11.4376 8.37354Z" fill="white" fill-opacity="0.87"/>
<path opacity="0.966" fill-rule="evenodd" clip-rule="evenodd" d="M15.3751 8.42042C15.9224 8.41259 16.4695 8.42042 17.0164 8.44385C17.0554 8.4829 17.0946 8.52199 17.1336 8.56104C17.2097 9.10339 17.2254 9.65023 17.1805 10.2017C17.1587 10.2687 17.1196 10.3234 17.0633 10.3657C16.5207 10.4418 15.9736 10.4575 15.422 10.4126C15.3382 10.3758 15.2679 10.3212 15.211 10.2485C15.1797 9.70165 15.1797 9.15481 15.211 8.60792C15.2433 8.5212 15.298 8.45867 15.3751 8.42042Z" fill="white" fill-opacity="0.87"/>
<path opacity="0.949" fill-rule="evenodd" clip-rule="evenodd" d="M9.46958 11.3267C10.0013 11.3188 10.5328 11.3267 11.064 11.3501C11.1311 11.3719 11.1858 11.411 11.2281 11.4673C11.3031 11.9952 11.3188 12.5264 11.275 13.061C11.2622 13.1468 11.2231 13.2171 11.1578 13.272C10.5995 13.3482 10.0368 13.3638 9.46958 13.3189C9.40247 13.2971 9.3478 13.258 9.30545 13.2017C9.23042 12.6738 9.2148 12.1426 9.25856 11.6079C9.28665 11.4788 9.35699 11.3851 9.46958 11.3267Z" fill="white" fill-opacity="0.87"/>
<path opacity="0.949" fill-rule="evenodd" clip-rule="evenodd" d="M13.4071 11.3267C13.9388 11.3188 14.4703 11.3267 15.0015 11.3501C15.0686 11.3719 15.1233 11.411 15.1656 11.4673C15.2406 11.9952 15.2563 12.5264 15.2125 13.061C15.1997 13.1468 15.1606 13.2171 15.0953 13.272C14.537 13.3482 13.9743 13.3638 13.4071 13.3189C13.34 13.2971 13.2853 13.258 13.2429 13.2017C13.1679 12.6738 13.1523 12.1426 13.1961 11.6079C13.2241 11.4788 13.2945 11.3851 13.4071 11.3267Z" fill="white" fill-opacity="0.87"/>
<path opacity="0.954" fill-rule="evenodd" clip-rule="evenodd" d="M8.11289 15.2173C10.8632 15.2095 13.6134 15.2173 16.3636 15.2407C16.707 15.3498 16.8945 15.5842 16.9261 15.9439C16.8803 16.2861 16.6928 16.5049 16.3636 16.6001C13.6133 16.6314 10.8631 16.6314 8.11289 16.6001C7.58147 16.3494 7.46428 15.9666 7.7613 15.4517C7.87503 15.3602 7.99223 15.282 8.11289 15.2173Z" fill="white" fill-opacity="0.87"/>
</g>
<defs>
<clipPath id="clip0_6495_37858">
<rect width="23.9999" height="24" fill="white" transform="translate(0.257812 0.381348)"/>
</clipPath>
</defs>
</svg>
