<svg width="24" height="25" viewBox="0 0 24 25" fill="none" xmlns="http://www.w3.org/2000/svg">
<path opacity="0.971" fill-rule="evenodd" clip-rule="evenodd" d="M11.5547 1.57659C14.3895 1.5286 16.5223 2.71611 17.9531 5.13909C18.3542 5.9048 18.6042 6.71728 18.7031 7.57659C18.7344 9.76411 18.7344 11.9516 18.7031 14.1391C18.2546 16.9659 16.6843 18.8643 13.9922 19.8344C11.1739 20.5614 8.77548 19.8661 6.79689 17.7485C5.93654 16.699 5.42092 15.4959 5.25001 14.1391C5.21875 11.9516 5.21875 9.76411 5.25001 7.57659C5.66293 4.86693 7.1395 2.99974 9.6797 1.97503C10.2967 1.77202 10.9217 1.63921 11.5547 1.57659ZM11.6016 3.12347C13.4832 3.06515 15.0067 3.76827 16.1719 5.23284C16.8436 6.16983 17.1873 7.21669 17.2031 8.37347C17.2456 10.2648 17.2299 12.1555 17.1563 14.0453C16.7423 16.303 15.4376 17.7639 13.2422 18.4282C10.8062 18.8854 8.89211 18.0963 7.50001 16.061C7.00196 15.2231 6.75198 14.3169 6.75001 13.3422C6.71875 11.686 6.71875 10.0297 6.75001 8.37347C6.87456 5.98434 8.03865 4.33593 10.2422 3.42816C10.6929 3.28659 11.1461 3.18503 11.6016 3.12347Z" fill="white"/>
<path fill-rule="evenodd" clip-rule="evenodd" d="M6.44531 6.02689V16.0068L8.32047 17.9423L11.2844 19.3939L16.426 17.4584L17.9988 12.9221L17.2124 5.05915L13.2201 2.39783L9.16732 2.94219L6.44531 6.02689ZM11.1312 6.59208C12.4339 6.51591 13.6996 6.69558 14.9284 7.13114C15.2994 7.34986 15.4322 7.67016 15.3269 8.09208C15.1937 8.42096 14.9515 8.5928 14.6002 8.60771C14.1186 8.48339 13.6341 8.36621 13.147 8.25614C11.8363 8.0206 10.5549 8.12996 9.30294 8.58427C8.60758 8.63897 8.28721 8.31863 8.34192 7.62333C8.39869 7.47057 8.48462 7.33777 8.59976 7.22489C9.4162 6.88018 10.26 6.66924 11.1312 6.59208ZM13.993 10.1313C13.0885 9.87721 12.1665 9.77563 11.2269 9.82663C10.7099 9.8878 10.1942 9.98938 9.67976 10.1313C9.4063 10.2876 9.24999 10.522 9.21094 10.8344C9.25426 11.3231 9.51994 11.5809 10.0079 11.6079C10.6177 11.4711 11.235 11.393 11.8598 11.3735C12.47 11.3882 13.0717 11.4664 13.6648 11.6079C13.9959 11.6182 14.2382 11.4776 14.3915 11.186C14.5443 10.722 14.4114 10.3705 13.993 10.1313Z" fill="white"/>
<path opacity="0.967" fill-rule="evenodd" clip-rule="evenodd" d="M2.78906 10.5765C3.22292 10.5238 3.5276 10.6957 3.70313 11.0922C3.70512 12.2662 3.75199 13.4381 3.84375 14.6078C4.33164 17.25 5.73009 19.2422 8.03906 20.5843C11.0728 22.0769 13.9946 21.8894 16.8047 20.0218C18.7356 18.5754 19.8528 16.6457 20.1563 14.2328C20.2064 13.1865 20.2376 12.1397 20.25 11.0922C20.4694 10.6335 20.8209 10.4851 21.3047 10.6468C21.4869 10.751 21.6197 10.8994 21.7031 11.0922C21.7344 12.1703 21.7344 13.2484 21.7031 14.3265C21.2915 17.6726 19.643 20.196 16.7578 21.8968C13.5705 23.5531 10.383 23.5531 7.19531 21.8968C4.31012 20.196 2.66168 17.6726 2.25 14.3265C2.21875 13.2484 2.21875 12.1703 2.25 11.0922C2.36425 10.8449 2.54394 10.6731 2.78906 10.5765Z" fill="white"/>
</svg>
