<svg width="17" height="17" viewBox="0 0 17 17" fill="none" xmlns="http://www.w3.org/2000/svg">
<path opacity="0.971" fill-rule="evenodd" clip-rule="evenodd" d="M8.45313 1.17769C10.343 1.1457 11.7649 1.93736 12.7188 3.55269C12.9861 4.06316 13.1528 4.60482 13.2188 5.17769C13.2396 6.63603 13.2396 8.09435 13.2188 9.55269C12.9198 11.4372 11.8729 12.7028 10.0781 13.3496C8.19929 13.8342 6.60032 13.3707 5.28126 11.9589C4.7077 11.2593 4.36395 10.4572 4.25001 9.55269C4.22916 8.09435 4.22916 6.63603 4.25001 5.17769C4.52529 3.37125 5.50966 2.12646 7.20313 1.44331C7.61448 1.30798 8.03113 1.21943 8.45313 1.17769ZM8.48438 2.20894C9.73882 2.17006 10.7544 2.63881 11.5313 3.61519C11.979 4.23985 12.2082 4.93775 12.2188 5.70894C12.2471 6.96985 12.2366 8.23028 12.1875 9.49019C11.9115 10.9953 11.0418 11.9692 9.57813 12.4121C7.9541 12.7169 6.67807 12.1908 5.75001 10.8339C5.41798 10.2754 5.25132 9.67122 5.25001 9.02144C5.22916 7.91728 5.22916 6.8131 5.25001 5.70894C5.33304 4.11619 6.1091 3.01725 7.57813 2.41206C7.87863 2.31769 8.18073 2.24998 8.48438 2.20894Z" fill="white" fill-opacity="0.87"/>
<path fill-rule="evenodd" clip-rule="evenodd" d="M10.6997 4.88048C9.88047 4.5901 9.03665 4.47032 8.1682 4.5211C7.58741 4.57254 7.02486 4.71317 6.48057 4.94298C6.40381 5.01823 6.34652 5.10676 6.30868 5.2086C6.27221 5.67214 6.48579 5.8857 6.94935 5.84923C7.78402 5.54635 8.63824 5.47345 9.51206 5.63048C9.83681 5.70385 10.1598 5.78198 10.4809 5.86485C10.7151 5.85492 10.8765 5.74035 10.9653 5.5211C11.0355 5.23982 10.947 5.02629 10.6997 4.88048Z" fill="white" fill-opacity="0.87"/>
<path opacity="0.967" fill-rule="evenodd" clip-rule="evenodd" d="M2.60938 7.17806C2.89861 7.14293 3.10174 7.25749 3.21875 7.52181C3.22008 8.30453 3.25133 9.08578 3.3125 9.86556C3.63776 11.627 4.57006 12.9552 6.10938 13.8499C8.13184 14.845 10.0798 14.72 11.9531 13.4749C13.2404 12.5106 13.9852 11.2242 14.1875 9.61556C14.2209 8.91806 14.2418 8.22015 14.25 7.52181C14.3963 7.21606 14.6306 7.11712 14.9531 7.22493C15.0746 7.29437 15.1632 7.39331 15.2188 7.52181C15.2396 8.24056 15.2396 8.95931 15.2188 9.67806C14.9443 11.9087 13.8453 13.591 11.9219 14.7249C9.79697 15.8291 7.67197 15.8291 5.54688 14.7249C3.62341 13.591 2.52445 11.9087 2.25 9.67806C2.22917 8.95931 2.22917 8.24056 2.25 7.52181C2.32617 7.35699 2.44596 7.24243 2.60938 7.17806Z" fill="white" fill-opacity="0.87"/>
<path fill-rule="evenodd" clip-rule="evenodd" d="M8.34397 6.58177C8.97035 6.54777 9.58505 6.61548 10.188 6.78489C10.467 6.94433 10.5556 7.1787 10.4537 7.48802C10.3515 7.68239 10.19 7.77614 9.96924 7.76927C9.57383 7.67492 9.1727 7.62283 8.76591 7.61302C8.34935 7.62602 7.93781 7.67811 7.53134 7.76927C7.206 7.75127 7.02888 7.57939 7 7.25364C7.02604 7.04533 7.13024 6.88908 7.31255 6.78489C7.65551 6.69027 7.99932 6.62255 8.34397 6.58177Z" fill="white" fill-opacity="0.87"/>
</svg>
