<svg width="25" height="24" viewBox="0 0 25 24" fill="none" xmlns="http://www.w3.org/2000/svg">
<g clip-path="url(#clip0_6495_37875)">
<path d="M12.7734 14.999C14.4303 14.999 15.7734 13.6559 15.7734 11.999C15.7734 10.3422 14.4303 8.99902 12.7734 8.99902C11.1166 8.99902 9.77344 10.3422 9.77344 11.999C9.77344 13.6559 11.1166 14.999 12.7734 14.999Z" stroke="white" stroke-opacity="0.87" stroke-width="1.5" stroke-linecap="round" stroke-linejoin="round"/>
<path d="M20.1734 14.999C20.0403 15.3006 20.0006 15.6352 20.0594 15.9596C20.1183 16.284 20.2729 16.5833 20.5034 16.819L20.5634 16.879C20.7494 17.0648 20.8969 17.2853 20.9976 17.5281C21.0982 17.7709 21.15 18.0312 21.15 18.294C21.15 18.5569 21.0982 18.8171 20.9976 19.0599C20.8969 19.3027 20.7494 19.5233 20.5634 19.709C20.3777 19.895 20.1571 20.0425 19.9143 20.1431C19.6715 20.2438 19.4113 20.2956 19.1484 20.2956C18.8856 20.2956 18.6254 20.2438 18.3826 20.1431C18.1398 20.0425 17.9192 19.895 17.7334 19.709L17.6734 19.649C17.4378 19.4185 17.1384 19.2638 16.814 19.205C16.4896 19.1462 16.1551 19.1859 15.8534 19.319C15.5577 19.4458 15.3054 19.6563 15.1277 19.9246C14.9501 20.1928 14.8547 20.5072 14.8534 20.829V20.999C14.8534 21.5295 14.6427 22.0382 14.2677 22.4132C13.8926 22.7883 13.3839 22.999 12.8534 22.999C12.323 22.999 11.8143 22.7883 11.4392 22.4132C11.0642 22.0382 10.8534 21.5295 10.8534 20.999V20.909C10.8457 20.578 10.7386 20.257 10.5459 19.9877C10.3533 19.7184 10.0842 19.5133 9.77344 19.399C9.47182 19.2659 9.13724 19.2262 8.81285 19.285C8.48845 19.3438 8.18912 19.4985 7.95344 19.729L7.89344 19.789C7.70769 19.975 7.48711 20.1225 7.24432 20.2231C7.00152 20.3238 6.74127 20.3756 6.47844 20.3756C6.21561 20.3756 5.95535 20.3238 5.71256 20.2231C5.46976 20.1225 5.24918 19.975 5.06344 19.789C4.87748 19.6033 4.72997 19.3827 4.62932 19.1399C4.52867 18.8971 4.47686 18.6369 4.47686 18.374C4.47686 18.1112 4.52867 17.8509 4.62932 17.6081C4.72997 17.3653 4.87748 17.1448 5.06344 16.959L5.12344 16.899C5.35397 16.6633 5.50862 16.364 5.56744 16.0396C5.62626 15.7152 5.58655 15.3806 5.45344 15.079C5.32667 14.7833 5.11619 14.531 4.8479 14.3533C4.57961 14.1757 4.26522 14.0803 3.94344 14.079H3.77344C3.243 14.079 2.7343 13.8683 2.35922 13.4932C1.98415 13.1182 1.77344 12.6095 1.77344 12.079C1.77344 11.5486 1.98415 11.0399 2.35922 10.6648C2.7343 10.2897 3.243 10.079 3.77344 10.079H3.86344C4.19443 10.0713 4.51544 9.96414 4.78474 9.77153C5.05403 9.57893 5.25915 9.30976 5.37344 8.99902C5.50655 8.69741 5.54626 8.36283 5.48744 8.03843C5.42862 7.71404 5.27397 7.4147 5.04344 7.17902L4.98344 7.11902C4.79748 6.93328 4.64997 6.7127 4.54932 6.4699C4.44867 6.22711 4.39686 5.96685 4.39686 5.70402C4.39686 5.44119 4.44867 5.18094 4.54932 4.93814C4.64997 4.69535 4.79748 4.47477 4.98344 4.28902C5.16918 4.10307 5.38976 3.95555 5.63256 3.8549C5.87535 3.75426 6.13561 3.70245 6.39844 3.70245C6.66127 3.70245 6.92152 3.75426 7.16432 3.8549C7.40711 3.95555 7.62769 4.10307 7.81344 4.28902L7.87344 4.34902C8.10912 4.57956 8.40845 4.73421 8.73285 4.79303C9.05724 4.85185 9.39182 4.81214 9.69344 4.67902H9.77344C10.0692 4.55226 10.3215 4.34178 10.4991 4.07349C10.6768 3.8052 10.7722 3.49081 10.7734 3.16902V2.99902C10.7734 2.46859 10.9842 1.95988 11.3592 1.58481C11.7343 1.20974 12.243 0.999023 12.7734 0.999023C13.3039 0.999023 13.8126 1.20974 14.1877 1.58481C14.5627 1.95988 14.7734 2.46859 14.7734 2.99902V3.08902C14.7747 3.41081 14.8701 3.7252 15.0477 3.99349C15.2254 4.26178 15.4777 4.47226 15.7734 4.59902C16.0751 4.73214 16.4096 4.77185 16.734 4.71303C17.0584 4.65421 17.3578 4.49956 17.5934 4.26902L17.6534 4.20902C17.8392 4.02307 18.0598 3.87555 18.3026 3.7749C18.5454 3.67426 18.8056 3.62245 19.0684 3.62245C19.3313 3.62245 19.5915 3.67426 19.8343 3.7749C20.0771 3.87555 20.2977 4.02307 20.4834 4.20902C20.6694 4.39477 20.8169 4.61535 20.9176 4.85814C21.0182 5.10094 21.07 5.36119 21.07 5.62402C21.07 5.88685 21.0182 6.14711 20.9176 6.3899C20.8169 6.6327 20.6694 6.85328 20.4834 7.03902L20.4234 7.09902C20.1929 7.3347 20.0383 7.63404 19.9794 7.95843C19.9206 8.28283 19.9603 8.61741 20.0934 8.91902V8.99902C20.2202 9.29479 20.4307 9.54704 20.699 9.72472C20.9673 9.90239 21.2817 9.99774 21.6034 9.99902H21.7734C22.3039 9.99902 22.8126 10.2097 23.1877 10.5848C23.5627 10.9599 23.7734 11.4686 23.7734 11.999C23.7734 12.5295 23.5627 13.0382 23.1877 13.4132C22.8126 13.7883 22.3039 13.999 21.7734 13.999H21.6834C21.3617 14.0003 21.0473 14.0957 20.779 14.2733C20.5107 14.451 20.3002 14.7033 20.1734 14.999V14.999Z" stroke="white" stroke-opacity="0.87" stroke-width="1.5" stroke-linecap="round" stroke-linejoin="round"/>
</g>
<defs>
<clipPath id="clip0_6495_37875">
<rect width="24" height="24" fill="white" transform="translate(0.773438 -0.000976562)"/>
</clipPath>
</defs>
</svg>
