<svg width="35" height="33" viewBox="0 0 35 33" fill="none" xmlns="http://www.w3.org/2000/svg">
<path d="M26.9279 32.529C26.5239 32.529 26.1219 32.405 25.7759 32.158L17.6409 26.324L9.50587 32.158C8.81287 32.654 7.88287 32.654 7.19387 32.15C6.50487 31.651 6.21487 30.765 6.47287 29.956L9.50687 20.164L1.44487 14.483C0.759867 13.978 0.474867 13.09 0.736867 12.28C1.00087 11.472 1.75287 10.923 2.60287 10.917L12.5879 10.902L15.7669 1.353C16.0349 0.544 16.7899 0 17.6409 0C18.4919 0 19.2469 0.545 19.5159 1.353L22.6409 10.902L32.6769 10.917C33.5299 10.923 34.2829 11.473 34.5439 12.28C34.8069 13.09 34.5219 13.978 33.8359 14.483L25.7739 20.164L28.8079 29.956C29.0679 30.765 28.7749 31.651 28.0879 32.15C27.7409 32.404 27.3349 32.529 26.9279 32.529Z" fill="#E4E4E7"/>
</svg>
