<svg width="17" height="16" viewBox="0 0 17 16" fill="none" xmlns="http://www.w3.org/2000/svg">
<g opacity="0.87">
<path opacity="0.963" d="M2.29585 0.884376L2.2822 0.88441L2.26906 0.8881C1.73557 1.03792 1.39199 1.38787 1.24716 1.92719L1.24387 1.93944L1.24374 1.95213C1.22292 4.04654 1.22292 6.14096 1.24374 8.23537L1.24386 8.24746L1.24686 8.25917C1.31509 8.52579 1.43455 8.74799 1.60784 8.92141C1.78111 9.09482 2.00362 9.2149 2.27098 9.28429L2.28285 9.28738L2.29513 9.2875C3.86485 9.3028 5.43464 9.30812 7.00443 9.30344C6.99975 10.8745 7.00507 12.4456 7.02036 14.0166L7.02048 14.0288L7.02353 14.0406C7.09244 14.3078 7.21221 14.5303 7.38549 14.7037C7.55877 14.8771 7.78099 14.9969 8.04778 15.0656L8.05956 15.0686L8.07172 15.0687C10.1645 15.0896 12.2572 15.0896 14.3499 15.0687L14.3621 15.0686L14.3739 15.0656C14.6408 14.9967 14.8631 14.8769 15.0364 14.7035C15.2096 14.5301 15.3294 14.3076 15.3981 14.0406L15.4012 14.0288L15.4013 14.0166C15.4221 11.9222 15.4221 9.82779 15.4013 7.73338L15.4012 7.72124L15.3982 7.70947C15.3295 7.44251 15.2099 7.22012 15.0366 7.04671C14.8633 6.87329 14.641 6.7534 14.374 6.68443L14.3621 6.68137L14.3499 6.68126C12.7802 6.66595 11.2104 6.66063 9.64061 6.66531C9.64529 5.09424 9.63997 3.52316 9.62468 1.95215L9.62456 1.9399L9.62148 1.92804C9.55215 1.6605 9.43219 1.43783 9.25892 1.26443C9.08563 1.091 8.86359 0.971424 8.59715 0.903132L8.5853 0.900095L8.57307 0.900003C6.48069 0.884376 4.38829 0.879166 2.29585 0.884376ZM2.14539 1.79233C2.2481 1.68735 2.39202 1.6161 2.58526 1.58435C4.48572 1.57918 6.38615 1.58439 8.28654 1.59996C8.44561 1.6141 8.5717 1.66166 8.67003 1.7382C8.76584 1.81278 8.84144 1.91968 8.89403 2.06456C8.91463 4.08399 8.91463 6.10343 8.89403 8.12286C8.81608 8.33581 8.67357 8.47843 8.46085 8.55643C6.44306 8.57704 4.42527 8.57704 2.40748 8.55643C2.26277 8.50381 2.15598 8.42816 2.08146 8.33227C2.00495 8.23382 1.95741 8.10755 1.94329 7.94825C1.92255 6.04625 1.92254 4.14426 1.94326 2.24227C1.97295 2.04487 2.04238 1.89761 2.14539 1.79233ZM7.75101 13.9042C7.7359 12.3742 7.73062 10.844 7.73522 9.31393C8.41074 9.37471 8.92826 9.25399 9.25975 8.92224C9.59123 8.5905 9.71183 8.07259 9.65108 7.39653C11.1799 7.39192 12.7088 7.3972 14.2376 7.41233C14.3823 7.46495 14.4891 7.54059 14.5636 7.63648C14.6401 7.73493 14.6876 7.8612 14.7018 8.02051C14.7225 9.92271 14.7225 11.8249 14.7018 13.7271C14.6747 13.9242 14.6067 14.0693 14.5046 14.1715C14.4025 14.2737 14.2576 14.3418 14.0606 14.3688C12.16 14.3896 10.2593 14.3896 8.35864 14.3688C8.1995 14.3547 8.07337 14.3071 7.97501 14.2306C7.8792 14.156 7.8036 14.0491 7.75101 13.9042Z" fill="#007BFF" stroke="#007BFF" stroke-width="0.2"/>
<path opacity="0.932" d="M11.3222 8.91917L11.3386 8.91877C11.4248 8.91671 11.5052 8.93475 11.5745 8.97856C11.6439 9.02239 11.6945 9.08722 11.7292 9.16592L11.7358 9.18102L11.7373 9.19747C11.7502 9.34365 11.7561 9.49006 11.7551 9.63666C12.2842 9.63294 12.8133 9.63845 13.3422 9.65316L13.3546 9.6535L13.3665 9.65687C13.4824 9.68949 13.5789 9.74872 13.6301 9.84726C13.681 9.94523 13.6751 10.0591 13.6375 10.1747L13.6301 10.1975L13.6131 10.2144L13.5585 10.2691L13.5038 10.3238L13.4755 10.3521L13.4355 10.3531C13.24 10.3578 13.0452 10.3708 12.8509 10.3922C12.6499 10.9507 12.3511 11.4483 11.9549 11.8842C12.3228 12.1786 12.74 12.3838 13.2074 12.4998L13.2327 12.5061L13.2517 12.5239C13.3458 12.6122 13.4082 12.7148 13.4082 12.8312C13.4082 12.9477 13.3458 13.0503 13.2517 13.1385L13.2292 13.1597L13.1987 13.1644C12.9721 13.1998 12.7546 13.1658 12.549 13.0632C12.1336 12.8976 11.7463 12.6845 11.3875 12.4239C11.0358 12.6768 10.6591 12.8899 10.2575 13.0633M11.3222 8.91917L10.2169 12.9719M11.3222 8.91917L11.3067 8.92482C11.1903 8.96736 11.1036 9.0488 11.0482 9.16241L11.0401 9.17904L11.0385 9.19747C11.0256 9.34365 11.0196 9.49006 11.0206 9.63666M11.3222 8.91917L11.1206 9.63747M10.2575 13.0633C10.2572 13.0634 10.2569 13.0636 10.2566 13.0637L10.2169 12.9719M10.2575 13.0633C10.2578 13.0631 10.2581 13.063 10.2585 13.0628L10.2169 12.9719M10.2575 13.0633C10.0515 13.1571 9.83569 13.1911 9.61203 13.1649L9.58616 13.1619L9.56506 13.1467C9.45648 13.0681 9.37783 12.9701 9.36978 12.8493C9.36177 12.7291 9.42602 12.6203 9.5223 12.5256L9.54154 12.5067L9.56769 12.5C10.0292 12.3821 10.4462 12.1813 10.8195 11.8975M10.2169 12.9719C10.0272 13.0585 9.8294 13.0897 9.62366 13.0656C9.4286 12.9246 9.41819 12.7683 9.59243 12.5969C10.0699 12.4749 10.5015 12.2664 10.8874 11.9714C10.8645 11.947 10.8418 11.9223 10.8195 11.8975M10.8195 11.8975C10.846 11.8773 10.8723 11.8567 10.8984 11.8357C10.4951 11.3886 10.1951 10.8767 9.99836 10.3M10.8195 11.8975C10.4233 11.457 10.125 10.955 9.92459 10.3922M9.92459 10.3922C9.94524 10.3945 9.96589 10.3968 9.98652 10.3993L9.99836 10.3M9.92459 10.3922C9.91751 10.3723 9.91055 10.3523 9.90371 10.3323L9.99836 10.3M9.92459 10.3922C9.73041 10.3708 9.53562 10.3578 9.34023 10.3531L9.30324 10.3522L9.27574 10.3275C9.19301 10.253 9.13704 10.165 9.12246 10.0629C9.10793 9.96104 9.13674 9.86022 9.19446 9.76413L9.20849 9.74077L9.23243 9.72776C9.28884 9.69709 9.34816 9.67333 9.41025 9.65658L9.42169 9.65349L9.43353 9.65316C9.96248 9.63845 10.4915 9.63294 11.0206 9.63666M9.99836 10.3C9.78053 10.274 9.56196 10.2584 9.34264 10.2531C9.20189 10.1265 9.18107 9.98062 9.28019 9.81562C9.32974 9.78868 9.38178 9.76784 9.43631 9.75312C9.96492 9.73842 10.4936 9.73293 11.0224 9.73668C11.0214 9.70333 11.0209 9.66999 11.0206 9.63666M11.0206 9.63666C11.054 9.6369 11.0873 9.63717 11.1206 9.63747M11.1206 9.63747C11.1196 9.49354 11.1254 9.34979 11.1381 9.20625C11.1829 9.11431 11.2506 9.05181 11.341 9.01875L11.1206 9.63747ZM12.064 10.3782C11.8884 10.7543 11.6624 11.0964 11.3857 11.4047C11.1007 11.1047 10.8748 10.767 10.7075 10.3911C11.156 10.3658 11.6081 10.3614 12.064 10.3782Z" fill="#007BFF" stroke="#007BFF" stroke-width="0.2"/>
<path opacity="0.925" d="M10.4674 3.76001L10.4427 3.7628L10.4221 3.77685C10.3648 3.81607 10.3119 3.8633 10.2634 3.91793L10.2482 3.93496L10.242 3.95688C10.1936 4.12586 10.2261 4.28177 10.3418 4.41058L10.3664 4.43797L10.4029 4.44286C10.7011 4.48286 11.0024 4.50396 11.3066 4.50616C11.5718 4.58866 11.7331 4.75994 11.7998 5.02946L11.815 5.42572L11.8307 5.83196L11.8314 5.85094L11.839 5.86834C11.8702 5.93934 11.9169 5.9994 11.9782 6.04743L11.996 6.06144L12.0182 6.06636C12.1261 6.09039 12.2346 6.09039 12.3426 6.06636L12.3648 6.06144L12.3826 6.04743C12.4439 5.9994 12.4906 5.93934 12.5217 5.86834L12.5276 5.85488L12.5294 5.8403C12.6217 5.0886 12.5067 4.51609 12.1495 4.1557C11.7923 3.79534 11.2205 3.67503 10.4674 3.76001Z" fill="#007BFF" stroke="#007BFF" stroke-width="0.2"/>
<path opacity="0.935" d="M5.11817 2.7931L5.07629 2.79539L5.04857 2.82687C4.96873 2.91758 4.90586 3.02047 4.85989 3.13495L3.33079 6.50791L3.32705 6.51616L3.32485 6.52495C3.30005 6.62421 3.30005 6.72418 3.32485 6.82344L3.33115 6.84862L3.34889 6.86756C3.43244 6.95676 3.52983 7.01546 3.64104 7.02288C3.75203 7.03029 3.85688 6.98529 3.95276 6.9085L3.97263 6.89258L3.98247 6.86909C4.12264 6.53461 4.27398 6.20558 4.43655 5.88203C4.99644 5.86817 5.55644 5.86329 6.1165 5.8674C6.25687 6.22734 6.41679 6.57938 6.59621 6.92355L6.6138 6.9573L6.64939 6.97081C6.73732 7.0042 6.81924 7.02458 6.89298 7.02702C6.9675 7.02948 7.03967 7.01362 7.09843 6.96788C7.21557 6.8767 7.22987 6.71029 7.20546 6.53537L7.20345 6.52096L7.19741 6.50772L5.57371 2.94522L5.56622 2.92879L5.55346 2.91601L5.4754 2.83789L5.45275 2.81522L5.42114 2.80994C5.32079 2.79317 5.21976 2.78754 5.11817 2.7931ZM5.75563 5.11798C5.42867 5.14287 5.10175 5.14292 4.77479 5.11815C4.93993 4.76074 5.09984 4.40157 5.25449 4.04065C5.42566 4.39587 5.59271 4.75499 5.75563 5.11798Z" fill="#007BFF" stroke="#007BFF" stroke-width="0.2"/>
<path opacity="0.926" d="M4.31729 9.88452L4.27553 9.88681L4.24783 9.91814C4.20102 9.97109 4.16032 10.0293 4.12571 10.0927L4.11627 10.1099L4.11408 10.1295C4.0275 10.9039 4.15015 11.4859 4.51988 11.8387C4.88968 12.1916 5.47591 12.2859 6.24351 12.1612L6.27963 12.1553L6.30343 12.1275C6.37641 12.0423 6.42115 11.9472 6.42115 11.8437C6.42115 11.7403 6.37641 11.6452 6.30343 11.56L6.2786 11.531L6.24077 11.5259C5.94257 11.4859 5.64137 11.4648 5.33721 11.4626C5.08454 11.3833 4.92263 11.221 4.84374 10.9677L4.813 10.1369L4.81229 10.1179L4.80462 10.1004C4.77344 10.0294 4.72673 9.96935 4.66549 9.92132L4.64542 9.90557L4.62026 9.90137C4.51991 9.8846 4.41888 9.87897 4.31729 9.88452Z" fill="#007BFF" stroke="#007BFF" stroke-width="0.2"/>
</g>
</svg>
