<svg width="35" height="33" viewBox="0 0 35 33" fill="none" xmlns="http://www.w3.org/2000/svg">
<path d="M26.4279 32.529C26.0239 32.529 25.6219 32.405 25.2759 32.158L17.1409 26.324L9.00587 32.158C8.31287 32.654 7.38287 32.654 6.69387 32.15C6.00487 31.651 5.71487 30.765 5.97287 29.956L9.00687 20.164L0.944867 14.483C0.259867 13.978 -0.0251328 13.09 0.236867 12.28C0.500867 11.472 1.25287 10.923 2.10287 10.917L12.0879 10.902L15.2669 1.353C15.5349 0.544 16.2899 0 17.1409 0C17.9919 0 18.7469 0.545 19.0159 1.353L22.1409 10.902L32.1769 10.917C33.0299 10.923 33.7829 11.473 34.0439 12.28C34.3069 13.09 34.0219 13.978 33.3359 14.483L25.2739 20.164L28.3079 29.956C28.5679 30.765 28.2749 31.651 27.5879 32.15C27.2409 32.404 26.8349 32.529 26.4279 32.529Z" fill="#007BFF"/>
</svg>
