<svg width="13" height="12" viewBox="0 0 13 12" fill="none" xmlns="http://www.w3.org/2000/svg">
<path d="M0.912392 10.3446C0.552484 10.7045 0.545139 11.3435 0.919737 11.7181C1.30168 12.0927 1.9407 12.0854 2.29326 11.7328L6.64154 7.38454L10.9825 11.7255C11.3497 12.0927 11.9814 12.0927 12.356 11.7181C12.7306 11.3362 12.7306 10.7119 12.3633 10.3446L8.02242 6.00367L12.3633 1.6554C12.7306 1.28815 12.7379 0.656471 12.356 0.281873C11.9814 -0.0927245 11.3497 -0.0927245 10.9825 0.274528L6.64154 4.61546L2.29326 0.274528C1.9407 -0.0853795 1.29434 -0.10007 0.919737 0.281873C0.545139 0.656471 0.552484 1.30284 0.912392 1.6554L5.25333 6.00367L0.912392 10.3446Z" fill="white"/>
</svg>
